<?xml version="1.0" encoding="utf-8" standalone="no"?>
<!DOCTYPE svg PUBLIC "-//W3C//DTD SVG 1.1//EN"
  "http://www.w3.org/Graphics/SVG/1.1/DTD/svg11.dtd">
<svg xmlns:xlink="http://www.w3.org/1999/xlink" width="976.853656pt" height="716.1125pt" viewBox="0 0 976.853656 716.1125" xmlns="http://www.w3.org/2000/svg" version="1.1">
 <metadata>
  <rdf:RDF xmlns:dc="http://purl.org/dc/elements/1.1/" xmlns:cc="http://creativecommons.org/ns#" xmlns:rdf="http://www.w3.org/1999/02/22-rdf-syntax-ns#">
   <cc:Work>
    <dc:type rdf:resource="http://purl.org/dc/dcmitype/StillImage"/>
    <dc:date>2025-06-25T14:37:48.452310</dc:date>
    <dc:format>image/svg+xml</dc:format>
    <dc:creator>
     <cc:Agent>
      <dc:title>Matplotlib v3.9.4, https://matplotlib.org/</dc:title>
     </cc:Agent>
    </dc:creator>
   </cc:Work>
  </rdf:RDF>
 </metadata>
 <defs>
  <style type="text/css">*{stroke-linejoin: round; stroke-linecap: butt}</style>
 </defs>
 <g id="figure_1">
  <g id="patch_1">
   <path d="M 0 716.1125 
L 976.853656 716.1125 
L 976.853656 0 
L 0 0 
z
" style="fill: #ffffff"/>
  </g>
  <g id="axes_1">
   <g id="patch_2">
    <path d="M 438.318784 135.776585 
C 398.672113 135.776585 359.573304 145.081604 324.176918 162.940898 
C 288.780532 180.800191 258.064827 206.720178 234.508 238.609587 
C 210.951173 270.498996 195.204269 307.476493 188.537776 346.558667 
C 181.871284 385.640842 184.469446 425.747572 196.122639 463.642976 
L 438.318784 389.165385 
z
" style="fill: #2e8b57"/>
   </g>
   <g id="patch_3">
    <path d="M 197.064435 470.636266 
C 212.21368 519.900595 242.039304 563.389419 282.539395 595.267576 
C 323.039487 627.145733 372.317847 645.920624 423.762347 649.073075 
L 439.260578 396.15868 
z
" style="fill: #4682b4"/>
   </g>
   <g id="patch_4">
    <path d="M 429.113563 649.648106 
C 472.678201 652.317693 516.202453 643.68647 555.451551 624.594262 
C 594.700641 605.502053 628.358976 576.588811 653.151687 540.667707 
L 444.611795 396.733711 
z
" style="fill: #9370db"/>
   </g>
   <g id="patch_5">
    <path d="M 655.938156 535.304454 
C 693.025435 481.57025 707.946047 415.527629 697.561469 351.068399 
C 687.176891 286.60917 652.2701 228.593774 600.183732 189.225739 
L 447.398264 391.370459 
z
" style="fill: #ff6347"/>
   </g>
   <g id="patch_6">
    <path d="M 609.11227 168.866626 
C 604.727433 165.552466 600.235968 162.381908 595.644913 159.359873 
C 591.053857 156.337839 586.365659 153.46596 581.587815 150.748858 
L 456.326802 371.011346 
z
" style="fill: #daa520"/>
   </g>
   <g id="patch_7">
    <path d="M 568.951685 167.014666 
C 549.94311 156.204677 529.614966 147.900709 508.474378 142.309901 
C 487.33379 136.719092 465.558072 133.888354 443.690707 133.888354 
L 443.690672 387.277154 
z
" style="fill: #cd853f"/>
   </g>
   <g id="matplotlib.axis_1"/>
   <g id="matplotlib.axis_2"/>
   <g id="text_1">
    <!-- Tests -->
    <g transform="translate(185.164389 220.675457) scale(0.1 -0.1)">
     <defs>
      <path id="DejaVuSans-Bold-54" d="M 31 4666 
L 4331 4666 
L 4331 3756 
L 2784 3756 
L 2784 0 
L 1581 0 
L 1581 3756 
L 31 3756 
L 31 4666 
z
" transform="scale(0.015625)"/>
      <path id="DejaVuSans-Bold-65" d="M 4031 1759 
L 4031 1441 
L 1416 1441 
Q 1456 1047 1700 850 
Q 1944 653 2381 653 
Q 2734 653 3104 758 
Q 3475 863 3866 1075 
L 3866 213 
Q 3469 63 3072 -14 
Q 2675 -91 2278 -91 
Q 1328 -91 801 392 
Q 275 875 275 1747 
Q 275 2603 792 3093 
Q 1309 3584 2216 3584 
Q 3041 3584 3536 3087 
Q 4031 2591 4031 1759 
z
M 2881 2131 
Q 2881 2450 2695 2645 
Q 2509 2841 2209 2841 
Q 1884 2841 1681 2658 
Q 1478 2475 1428 2131 
L 2881 2131 
z
" transform="scale(0.015625)"/>
      <path id="DejaVuSans-Bold-73" d="M 3272 3391 
L 3272 2541 
Q 2913 2691 2578 2766 
Q 2244 2841 1947 2841 
Q 1628 2841 1473 2761 
Q 1319 2681 1319 2516 
Q 1319 2381 1436 2309 
Q 1553 2238 1856 2203 
L 2053 2175 
Q 2913 2066 3209 1816 
Q 3506 1566 3506 1031 
Q 3506 472 3093 190 
Q 2681 -91 1863 -91 
Q 1516 -91 1145 -36 
Q 775 19 384 128 
L 384 978 
Q 719 816 1070 734 
Q 1422 653 1784 653 
Q 2113 653 2278 743 
Q 2444 834 2444 1013 
Q 2444 1163 2330 1236 
Q 2216 1309 1875 1350 
L 1678 1375 
Q 931 1469 631 1722 
Q 331 1975 331 2491 
Q 331 3047 712 3315 
Q 1094 3584 1881 3584 
Q 2191 3584 2531 3537 
Q 2872 3491 3272 3391 
z
" transform="scale(0.015625)"/>
      <path id="DejaVuSans-Bold-74" d="M 1759 4494 
L 1759 3500 
L 2913 3500 
L 2913 2700 
L 1759 2700 
L 1759 1216 
Q 1759 972 1856 886 
Q 1953 800 2241 800 
L 2816 800 
L 2816 0 
L 1856 0 
Q 1194 0 917 276 
Q 641 553 641 1216 
L 641 2700 
L 84 2700 
L 84 3500 
L 641 3500 
L 641 4494 
L 1759 4494 
z
" transform="scale(0.015625)"/>
     </defs>
     <use xlink:href="#DejaVuSans-Bold-54"/>
     <use xlink:href="#DejaVuSans-Bold-65" x="54.962891"/>
     <use xlink:href="#DejaVuSans-Bold-73" x="122.785156"/>
     <use xlink:href="#DejaVuSans-Bold-74" x="182.306641"/>
     <use xlink:href="#DejaVuSans-Bold-73" x="230.109375"/>
    </g>
    <!-- (Python) -->
    <g transform="translate(165.062826 231.87327) scale(0.1 -0.1)">
     <defs>
      <path id="DejaVuSans-Bold-28" d="M 2413 -844 
L 1484 -844 
Q 1006 -72 778 623 
Q 550 1319 550 2003 
Q 550 2688 779 3389 
Q 1009 4091 1484 4856 
L 2413 4856 
Q 2013 4116 1813 3408 
Q 1613 2700 1613 2009 
Q 1613 1319 1811 609 
Q 2009 -100 2413 -844 
z
" transform="scale(0.015625)"/>
      <path id="DejaVuSans-Bold-50" d="M 588 4666 
L 2584 4666 
Q 3475 4666 3951 4270 
Q 4428 3875 4428 3144 
Q 4428 2409 3951 2014 
Q 3475 1619 2584 1619 
L 1791 1619 
L 1791 0 
L 588 0 
L 588 4666 
z
M 1791 3794 
L 1791 2491 
L 2456 2491 
Q 2806 2491 2997 2661 
Q 3188 2831 3188 3144 
Q 3188 3456 2997 3625 
Q 2806 3794 2456 3794 
L 1791 3794 
z
" transform="scale(0.015625)"/>
      <path id="DejaVuSans-Bold-79" d="M 78 3500 
L 1197 3500 
L 2138 1125 
L 2938 3500 
L 4056 3500 
L 2584 -331 
Q 2363 -916 2067 -1148 
Q 1772 -1381 1288 -1381 
L 641 -1381 
L 641 -647 
L 991 -647 
Q 1275 -647 1404 -556 
Q 1534 -466 1606 -231 
L 1638 -134 
L 78 3500 
z
" transform="scale(0.015625)"/>
      <path id="DejaVuSans-Bold-68" d="M 4056 2131 
L 4056 0 
L 2931 0 
L 2931 347 
L 2931 1625 
Q 2931 2084 2911 2256 
Q 2891 2428 2841 2509 
Q 2775 2619 2662 2680 
Q 2550 2741 2406 2741 
Q 2056 2741 1856 2470 
Q 1656 2200 1656 1722 
L 1656 0 
L 538 0 
L 538 4863 
L 1656 4863 
L 1656 2988 
Q 1909 3294 2193 3439 
Q 2478 3584 2822 3584 
Q 3428 3584 3742 3212 
Q 4056 2841 4056 2131 
z
" transform="scale(0.015625)"/>
      <path id="DejaVuSans-Bold-6f" d="M 2203 2784 
Q 1831 2784 1636 2517 
Q 1441 2250 1441 1747 
Q 1441 1244 1636 976 
Q 1831 709 2203 709 
Q 2569 709 2762 976 
Q 2956 1244 2956 1747 
Q 2956 2250 2762 2517 
Q 2569 2784 2203 2784 
z
M 2203 3584 
Q 3106 3584 3614 3096 
Q 4122 2609 4122 1747 
Q 4122 884 3614 396 
Q 3106 -91 2203 -91 
Q 1297 -91 786 396 
Q 275 884 275 1747 
Q 275 2609 786 3096 
Q 1297 3584 2203 3584 
z
" transform="scale(0.015625)"/>
      <path id="DejaVuSans-Bold-6e" d="M 4056 2131 
L 4056 0 
L 2931 0 
L 2931 347 
L 2931 1631 
Q 2931 2084 2911 2256 
Q 2891 2428 2841 2509 
Q 2775 2619 2662 2680 
Q 2550 2741 2406 2741 
Q 2056 2741 1856 2470 
Q 1656 2200 1656 1722 
L 1656 0 
L 538 0 
L 538 3500 
L 1656 3500 
L 1656 2988 
Q 1909 3294 2193 3439 
Q 2478 3584 2822 3584 
Q 3428 3584 3742 3212 
Q 4056 2841 4056 2131 
z
" transform="scale(0.015625)"/>
      <path id="DejaVuSans-Bold-29" d="M 513 -844 
Q 913 -100 1113 609 
Q 1313 1319 1313 2009 
Q 1313 2700 1113 3408 
Q 913 4116 513 4856 
L 1441 4856 
Q 1916 4091 2145 3389 
Q 2375 2688 2375 2003 
Q 2375 1319 2147 623 
Q 1919 -72 1441 -844 
L 513 -844 
z
" transform="scale(0.015625)"/>
     </defs>
     <use xlink:href="#DejaVuSans-Bold-28"/>
     <use xlink:href="#DejaVuSans-Bold-50" x="45.703125"/>
     <use xlink:href="#DejaVuSans-Bold-79" x="120.869141"/>
     <use xlink:href="#DejaVuSans-Bold-74" x="186.054688"/>
     <use xlink:href="#DejaVuSans-Bold-68" x="233.857422"/>
     <use xlink:href="#DejaVuSans-Bold-6f" x="305.048828"/>
     <use xlink:href="#DejaVuSans-Bold-6e" x="373.75"/>
     <use xlink:href="#DejaVuSans-Bold-29" x="444.941406"/>
    </g>
   </g>
   <g id="text_2">
    <!-- 29.7% -->
    <g style="fill: #ffffff" transform="translate(300.420811 301.315368) scale(0.09 -0.09)">
     <defs>
      <path id="DejaVuSans-Bold-32" d="M 1844 884 
L 3897 884 
L 3897 0 
L 506 0 
L 506 884 
L 2209 2388 
Q 2438 2594 2547 2791 
Q 2656 2988 2656 3200 
Q 2656 3528 2436 3728 
Q 2216 3928 1850 3928 
Q 1569 3928 1234 3808 
Q 900 3688 519 3450 
L 519 4475 
Q 925 4609 1322 4679 
Q 1719 4750 2100 4750 
Q 2938 4750 3402 4381 
Q 3866 4013 3866 3353 
Q 3866 2972 3669 2642 
Q 3472 2313 2841 1759 
L 1844 884 
z
" transform="scale(0.015625)"/>
      <path id="DejaVuSans-Bold-39" d="M 641 103 
L 641 966 
Q 928 831 1190 764 
Q 1453 697 1709 697 
Q 2247 697 2547 995 
Q 2847 1294 2900 1881 
Q 2688 1725 2447 1647 
Q 2206 1569 1925 1569 
Q 1209 1569 770 1986 
Q 331 2403 331 3084 
Q 331 3838 820 4291 
Q 1309 4744 2131 4744 
Q 3044 4744 3544 4128 
Q 4044 3513 4044 2388 
Q 4044 1231 3459 570 
Q 2875 -91 1856 -91 
Q 1528 -91 1228 -42 
Q 928 6 641 103 
z
M 2125 2350 
Q 2441 2350 2600 2554 
Q 2759 2759 2759 3169 
Q 2759 3575 2600 3781 
Q 2441 3988 2125 3988 
Q 1809 3988 1650 3781 
Q 1491 3575 1491 3169 
Q 1491 2759 1650 2554 
Q 1809 2350 2125 2350 
z
" transform="scale(0.015625)"/>
      <path id="DejaVuSans-Bold-2e" d="M 653 1209 
L 1778 1209 
L 1778 0 
L 653 0 
L 653 1209 
z
" transform="scale(0.015625)"/>
      <path id="DejaVuSans-Bold-37" d="M 428 4666 
L 3944 4666 
L 3944 3988 
L 2125 0 
L 953 0 
L 2675 3781 
L 428 3781 
L 428 4666 
z
" transform="scale(0.015625)"/>
      <path id="DejaVuSans-Bold-25" d="M 4959 1925 
Q 4738 1925 4616 1733 
Q 4494 1541 4494 1184 
Q 4494 825 4614 633 
Q 4734 441 4959 441 
Q 5184 441 5303 633 
Q 5422 825 5422 1184 
Q 5422 1541 5301 1733 
Q 5181 1925 4959 1925 
z
M 4959 2450 
Q 5541 2450 5875 2112 
Q 6209 1775 6209 1184 
Q 6209 594 5875 251 
Q 5541 -91 4959 -91 
Q 4378 -91 4042 251 
Q 3706 594 3706 1184 
Q 3706 1772 4042 2111 
Q 4378 2450 4959 2450 
z
M 2094 -91 
L 1403 -91 
L 4319 4750 
L 5013 4750 
L 2094 -91 
z
M 1453 4750 
Q 2034 4750 2367 4411 
Q 2700 4072 2700 3481 
Q 2700 2891 2367 2550 
Q 2034 2209 1453 2209 
Q 872 2209 539 2550 
Q 206 2891 206 3481 
Q 206 4072 539 4411 
Q 872 4750 1453 4750 
z
M 1453 4225 
Q 1228 4225 1106 4031 
Q 984 3838 984 3481 
Q 984 3122 1106 2926 
Q 1228 2731 1453 2731 
Q 1678 2731 1798 2926 
Q 1919 3122 1919 3481 
Q 1919 3838 1797 4031 
Q 1675 4225 1453 4225 
z
" transform="scale(0.015625)"/>
     </defs>
     <use xlink:href="#DejaVuSans-Bold-32"/>
     <use xlink:href="#DejaVuSans-Bold-39" x="69.580078"/>
     <use xlink:href="#DejaVuSans-Bold-2e" x="139.160156"/>
     <use xlink:href="#DejaVuSans-Bold-37" x="177.148438"/>
     <use xlink:href="#DejaVuSans-Bold-25" x="246.728516"/>
    </g>
   </g>
   <g id="text_3">
    <!-- Core Application -->
    <g transform="translate(173.678322 612.299962) scale(0.1 -0.1)">
     <defs>
      <path id="DejaVuSans-Bold-43" d="M 4288 256 
Q 3956 84 3597 -3 
Q 3238 -91 2847 -91 
Q 1681 -91 1000 561 
Q 319 1213 319 2328 
Q 319 3447 1000 4098 
Q 1681 4750 2847 4750 
Q 3238 4750 3597 4662 
Q 3956 4575 4288 4403 
L 4288 3438 
Q 3953 3666 3628 3772 
Q 3303 3878 2944 3878 
Q 2300 3878 1931 3465 
Q 1563 3053 1563 2328 
Q 1563 1606 1931 1193 
Q 2300 781 2944 781 
Q 3303 781 3628 887 
Q 3953 994 4288 1222 
L 4288 256 
z
" transform="scale(0.015625)"/>
      <path id="DejaVuSans-Bold-72" d="M 3138 2547 
Q 2991 2616 2845 2648 
Q 2700 2681 2553 2681 
Q 2122 2681 1889 2404 
Q 1656 2128 1656 1613 
L 1656 0 
L 538 0 
L 538 3500 
L 1656 3500 
L 1656 2925 
Q 1872 3269 2151 3426 
Q 2431 3584 2822 3584 
Q 2878 3584 2943 3579 
Q 3009 3575 3134 3559 
L 3138 2547 
z
" transform="scale(0.015625)"/>
      <path id="DejaVuSans-Bold-20" transform="scale(0.015625)"/>
      <path id="DejaVuSans-Bold-41" d="M 3419 850 
L 1538 850 
L 1241 0 
L 31 0 
L 1759 4666 
L 3194 4666 
L 4922 0 
L 3713 0 
L 3419 850 
z
M 1838 1716 
L 3116 1716 
L 2478 3572 
L 1838 1716 
z
" transform="scale(0.015625)"/>
      <path id="DejaVuSans-Bold-70" d="M 1656 506 
L 1656 -1331 
L 538 -1331 
L 538 3500 
L 1656 3500 
L 1656 2988 
Q 1888 3294 2169 3439 
Q 2450 3584 2816 3584 
Q 3463 3584 3878 3070 
Q 4294 2556 4294 1747 
Q 4294 938 3878 423 
Q 3463 -91 2816 -91 
Q 2450 -91 2169 54 
Q 1888 200 1656 506 
z
M 2400 2772 
Q 2041 2772 1848 2508 
Q 1656 2244 1656 1747 
Q 1656 1250 1848 986 
Q 2041 722 2400 722 
Q 2759 722 2948 984 
Q 3138 1247 3138 1747 
Q 3138 2247 2948 2509 
Q 2759 2772 2400 2772 
z
" transform="scale(0.015625)"/>
      <path id="DejaVuSans-Bold-6c" d="M 538 4863 
L 1656 4863 
L 1656 0 
L 538 0 
L 538 4863 
z
" transform="scale(0.015625)"/>
      <path id="DejaVuSans-Bold-69" d="M 538 3500 
L 1656 3500 
L 1656 0 
L 538 0 
L 538 3500 
z
M 538 4863 
L 1656 4863 
L 1656 3950 
L 538 3950 
L 538 4863 
z
" transform="scale(0.015625)"/>
      <path id="DejaVuSans-Bold-63" d="M 3366 3391 
L 3366 2478 
Q 3138 2634 2908 2709 
Q 2678 2784 2431 2784 
Q 1963 2784 1702 2511 
Q 1441 2238 1441 1747 
Q 1441 1256 1702 982 
Q 1963 709 2431 709 
Q 2694 709 2930 787 
Q 3166 866 3366 1019 
L 3366 103 
Q 3103 6 2833 -42 
Q 2563 -91 2291 -91 
Q 1344 -91 809 395 
Q 275 881 275 1747 
Q 275 2613 809 3098 
Q 1344 3584 2291 3584 
Q 2566 3584 2833 3536 
Q 3100 3488 3366 3391 
z
" transform="scale(0.015625)"/>
      <path id="DejaVuSans-Bold-61" d="M 2106 1575 
Q 1756 1575 1579 1456 
Q 1403 1338 1403 1106 
Q 1403 894 1545 773 
Q 1688 653 1941 653 
Q 2256 653 2472 879 
Q 2688 1106 2688 1447 
L 2688 1575 
L 2106 1575 
z
M 3816 1997 
L 3816 0 
L 2688 0 
L 2688 519 
Q 2463 200 2181 54 
Q 1900 -91 1497 -91 
Q 953 -91 614 226 
Q 275 544 275 1050 
Q 275 1666 698 1953 
Q 1122 2241 2028 2241 
L 2688 2241 
L 2688 2328 
Q 2688 2594 2478 2717 
Q 2269 2841 1825 2841 
Q 1466 2841 1156 2769 
Q 847 2697 581 2553 
L 581 3406 
Q 941 3494 1303 3539 
Q 1666 3584 2028 3584 
Q 2975 3584 3395 3211 
Q 3816 2838 3816 1997 
z
" transform="scale(0.015625)"/>
     </defs>
     <use xlink:href="#DejaVuSans-Bold-43"/>
     <use xlink:href="#DejaVuSans-Bold-6f" x="73.388672"/>
     <use xlink:href="#DejaVuSans-Bold-72" x="142.089844"/>
     <use xlink:href="#DejaVuSans-Bold-65" x="191.40625"/>
     <use xlink:href="#DejaVuSans-Bold-20" x="259.228516"/>
     <use xlink:href="#DejaVuSans-Bold-41" x="294.042969"/>
     <use xlink:href="#DejaVuSans-Bold-70" x="371.435547"/>
     <use xlink:href="#DejaVuSans-Bold-70" x="443.017578"/>
     <use xlink:href="#DejaVuSans-Bold-6c" x="514.599609"/>
     <use xlink:href="#DejaVuSans-Bold-69" x="548.876953"/>
     <use xlink:href="#DejaVuSans-Bold-63" x="583.154297"/>
     <use xlink:href="#DejaVuSans-Bold-61" x="642.431641"/>
     <use xlink:href="#DejaVuSans-Bold-74" x="709.912109"/>
     <use xlink:href="#DejaVuSans-Bold-69" x="757.714844"/>
     <use xlink:href="#DejaVuSans-Bold-6f" x="791.992188"/>
     <use xlink:href="#DejaVuSans-Bold-6e" x="860.693359"/>
    </g>
    <!-- (Hand-written Python) -->
    <g transform="translate(139.718947 623.497775) scale(0.1 -0.1)">
     <defs>
      <path id="DejaVuSans-Bold-48" d="M 588 4666 
L 1791 4666 
L 1791 2888 
L 3566 2888 
L 3566 4666 
L 4769 4666 
L 4769 0 
L 3566 0 
L 3566 1978 
L 1791 1978 
L 1791 0 
L 588 0 
L 588 4666 
z
" transform="scale(0.015625)"/>
      <path id="DejaVuSans-Bold-64" d="M 2919 2988 
L 2919 4863 
L 4044 4863 
L 4044 0 
L 2919 0 
L 2919 506 
Q 2688 197 2409 53 
Q 2131 -91 1766 -91 
Q 1119 -91 703 423 
Q 288 938 288 1747 
Q 288 2556 703 3070 
Q 1119 3584 1766 3584 
Q 2128 3584 2408 3439 
Q 2688 3294 2919 2988 
z
M 2181 722 
Q 2541 722 2730 984 
Q 2919 1247 2919 1747 
Q 2919 2247 2730 2509 
Q 2541 2772 2181 2772 
Q 1825 2772 1636 2509 
Q 1447 2247 1447 1747 
Q 1447 1247 1636 984 
Q 1825 722 2181 722 
z
" transform="scale(0.015625)"/>
      <path id="DejaVuSans-Bold-2d" d="M 347 2297 
L 2309 2297 
L 2309 1388 
L 347 1388 
L 347 2297 
z
" transform="scale(0.015625)"/>
      <path id="DejaVuSans-Bold-77" d="M 225 3500 
L 1313 3500 
L 1900 1088 
L 2491 3500 
L 3425 3500 
L 4013 1113 
L 4603 3500 
L 5691 3500 
L 4769 0 
L 3547 0 
L 2956 2406 
L 2369 0 
L 1147 0 
L 225 3500 
z
" transform="scale(0.015625)"/>
     </defs>
     <use xlink:href="#DejaVuSans-Bold-28"/>
     <use xlink:href="#DejaVuSans-Bold-48" x="45.703125"/>
     <use xlink:href="#DejaVuSans-Bold-61" x="129.394531"/>
     <use xlink:href="#DejaVuSans-Bold-6e" x="196.875"/>
     <use xlink:href="#DejaVuSans-Bold-64" x="268.066406"/>
     <use xlink:href="#DejaVuSans-Bold-2d" x="339.648438"/>
     <use xlink:href="#DejaVuSans-Bold-77" x="381.152344"/>
     <use xlink:href="#DejaVuSans-Bold-72" x="473.535156"/>
     <use xlink:href="#DejaVuSans-Bold-69" x="522.851562"/>
     <use xlink:href="#DejaVuSans-Bold-74" x="557.128906"/>
     <use xlink:href="#DejaVuSans-Bold-74" x="604.931641"/>
     <use xlink:href="#DejaVuSans-Bold-65" x="652.734375"/>
     <use xlink:href="#DejaVuSans-Bold-6e" x="720.556641"/>
     <use xlink:href="#DejaVuSans-Bold-20" x="791.748047"/>
     <use xlink:href="#DejaVuSans-Bold-50" x="826.5625"/>
     <use xlink:href="#DejaVuSans-Bold-79" x="901.728516"/>
     <use xlink:href="#DejaVuSans-Bold-74" x="966.914062"/>
     <use xlink:href="#DejaVuSans-Bold-68" x="1014.716797"/>
     <use xlink:href="#DejaVuSans-Bold-6f" x="1085.908203"/>
     <use xlink:href="#DejaVuSans-Bold-6e" x="1154.609375"/>
     <use xlink:href="#DejaVuSans-Bold-29" x="1225.800781"/>
    </g>
   </g>
   <g id="text_4">
    <!-- 19.3% -->
    <g style="fill: #ffffff" transform="translate(329.616443 518.107504) scale(0.09 -0.09)">
     <defs>
      <path id="DejaVuSans-Bold-31" d="M 750 831 
L 1813 831 
L 1813 3847 
L 722 3622 
L 722 4441 
L 1806 4666 
L 2950 4666 
L 2950 831 
L 4013 831 
L 4013 0 
L 750 0 
L 750 831 
z
" transform="scale(0.015625)"/>
      <path id="DejaVuSans-Bold-33" d="M 2981 2516 
Q 3453 2394 3698 2092 
Q 3944 1791 3944 1325 
Q 3944 631 3412 270 
Q 2881 -91 1863 -91 
Q 1503 -91 1142 -33 
Q 781 25 428 141 
L 428 1069 
Q 766 900 1098 814 
Q 1431 728 1753 728 
Q 2231 728 2486 893 
Q 2741 1059 2741 1369 
Q 2741 1688 2480 1852 
Q 2219 2016 1709 2016 
L 1228 2016 
L 1228 2791 
L 1734 2791 
Q 2188 2791 2409 2933 
Q 2631 3075 2631 3366 
Q 2631 3634 2415 3781 
Q 2200 3928 1806 3928 
Q 1516 3928 1219 3862 
Q 922 3797 628 3669 
L 628 4550 
Q 984 4650 1334 4700 
Q 1684 4750 2022 4750 
Q 2931 4750 3382 4451 
Q 3834 4153 3834 3553 
Q 3834 3144 3618 2883 
Q 3403 2622 2981 2516 
z
" transform="scale(0.015625)"/>
     </defs>
     <use xlink:href="#DejaVuSans-Bold-31"/>
     <use xlink:href="#DejaVuSans-Bold-39" x="69.580078"/>
     <use xlink:href="#DejaVuSans-Bold-2e" x="139.160156"/>
     <use xlink:href="#DejaVuSans-Bold-33" x="177.148438"/>
     <use xlink:href="#DejaVuSans-Bold-25" x="246.728516"/>
    </g>
   </g>
   <g id="text_5">
    <!-- Documentation -->
    <g transform="translate(566.53553 644.540788) scale(0.1 -0.1)">
     <defs>
      <path id="DejaVuSans-Bold-44" d="M 1791 3756 
L 1791 909 
L 2222 909 
Q 2959 909 3348 1275 
Q 3738 1641 3738 2338 
Q 3738 3031 3350 3393 
Q 2963 3756 2222 3756 
L 1791 3756 
z
M 588 4666 
L 1856 4666 
Q 2919 4666 3439 4514 
Q 3959 4363 4331 4000 
Q 4659 3684 4818 3271 
Q 4978 2859 4978 2338 
Q 4978 1809 4818 1395 
Q 4659 981 4331 666 
Q 3956 303 3431 151 
Q 2906 0 1856 0 
L 588 0 
L 588 4666 
z
" transform="scale(0.015625)"/>
      <path id="DejaVuSans-Bold-75" d="M 500 1363 
L 500 3500 
L 1625 3500 
L 1625 3150 
Q 1625 2866 1622 2436 
Q 1619 2006 1619 1863 
Q 1619 1441 1641 1255 
Q 1663 1069 1716 984 
Q 1784 875 1895 815 
Q 2006 756 2150 756 
Q 2500 756 2700 1025 
Q 2900 1294 2900 1772 
L 2900 3500 
L 4019 3500 
L 4019 0 
L 2900 0 
L 2900 506 
Q 2647 200 2364 54 
Q 2081 -91 1741 -91 
Q 1134 -91 817 281 
Q 500 653 500 1363 
z
" transform="scale(0.015625)"/>
      <path id="DejaVuSans-Bold-6d" d="M 3781 2919 
Q 3994 3244 4286 3414 
Q 4578 3584 4928 3584 
Q 5531 3584 5847 3212 
Q 6163 2841 6163 2131 
L 6163 0 
L 5038 0 
L 5038 1825 
Q 5041 1866 5042 1909 
Q 5044 1953 5044 2034 
Q 5044 2406 4934 2573 
Q 4825 2741 4581 2741 
Q 4263 2741 4089 2478 
Q 3916 2216 3909 1719 
L 3909 0 
L 2784 0 
L 2784 1825 
Q 2784 2406 2684 2573 
Q 2584 2741 2328 2741 
Q 2006 2741 1831 2477 
Q 1656 2213 1656 1722 
L 1656 0 
L 531 0 
L 531 3500 
L 1656 3500 
L 1656 2988 
Q 1863 3284 2130 3434 
Q 2397 3584 2719 3584 
Q 3081 3584 3359 3409 
Q 3638 3234 3781 2919 
z
" transform="scale(0.015625)"/>
     </defs>
     <use xlink:href="#DejaVuSans-Bold-44"/>
     <use xlink:href="#DejaVuSans-Bold-6f" x="83.007812"/>
     <use xlink:href="#DejaVuSans-Bold-63" x="151.708984"/>
     <use xlink:href="#DejaVuSans-Bold-75" x="210.986328"/>
     <use xlink:href="#DejaVuSans-Bold-6d" x="282.177734"/>
     <use xlink:href="#DejaVuSans-Bold-65" x="386.376953"/>
     <use xlink:href="#DejaVuSans-Bold-6e" x="454.199219"/>
     <use xlink:href="#DejaVuSans-Bold-74" x="525.390625"/>
     <use xlink:href="#DejaVuSans-Bold-61" x="573.193359"/>
     <use xlink:href="#DejaVuSans-Bold-74" x="640.673828"/>
     <use xlink:href="#DejaVuSans-Bold-69" x="688.476562"/>
     <use xlink:href="#DejaVuSans-Bold-6f" x="722.753906"/>
     <use xlink:href="#DejaVuSans-Bold-6e" x="791.455078"/>
    </g>
    <!-- (Markdown) -->
    <g transform="translate(566.53553 655.738601) scale(0.1 -0.1)">
     <defs>
      <path id="DejaVuSans-Bold-4d" d="M 588 4666 
L 2119 4666 
L 3181 2169 
L 4250 4666 
L 5778 4666 
L 5778 0 
L 4641 0 
L 4641 3413 
L 3566 897 
L 2803 897 
L 1728 3413 
L 1728 0 
L 588 0 
L 588 4666 
z
" transform="scale(0.015625)"/>
      <path id="DejaVuSans-Bold-6b" d="M 538 4863 
L 1656 4863 
L 1656 2216 
L 2944 3500 
L 4244 3500 
L 2534 1894 
L 4378 0 
L 3022 0 
L 1656 1459 
L 1656 0 
L 538 0 
L 538 4863 
z
" transform="scale(0.015625)"/>
     </defs>
     <use xlink:href="#DejaVuSans-Bold-28"/>
     <use xlink:href="#DejaVuSans-Bold-4d" x="45.703125"/>
     <use xlink:href="#DejaVuSans-Bold-61" x="145.214844"/>
     <use xlink:href="#DejaVuSans-Bold-72" x="212.695312"/>
     <use xlink:href="#DejaVuSans-Bold-6b" x="262.011719"/>
     <use xlink:href="#DejaVuSans-Bold-64" x="328.515625"/>
     <use xlink:href="#DejaVuSans-Bold-6f" x="400.097656"/>
     <use xlink:href="#DejaVuSans-Bold-77" x="468.798828"/>
     <use xlink:href="#DejaVuSans-Bold-6e" x="561.181641"/>
     <use xlink:href="#DejaVuSans-Bold-29" x="632.373047"/>
    </g>
   </g>
   <g id="text_6">
    <!-- 16.4% -->
    <g style="fill: #ffffff" transform="translate(495.504166 535.93348) scale(0.09 -0.09)">
     <defs>
      <path id="DejaVuSans-Bold-36" d="M 2316 2303 
Q 2000 2303 1842 2098 
Q 1684 1894 1684 1484 
Q 1684 1075 1842 870 
Q 2000 666 2316 666 
Q 2634 666 2792 870 
Q 2950 1075 2950 1484 
Q 2950 1894 2792 2098 
Q 2634 2303 2316 2303 
z
M 3803 4544 
L 3803 3681 
Q 3506 3822 3243 3889 
Q 2981 3956 2731 3956 
Q 2194 3956 1894 3657 
Q 1594 3359 1544 2772 
Q 1750 2925 1990 3001 
Q 2231 3078 2516 3078 
Q 3231 3078 3670 2659 
Q 4109 2241 4109 1563 
Q 4109 813 3618 361 
Q 3128 -91 2303 -91 
Q 1394 -91 895 523 
Q 397 1138 397 2266 
Q 397 3422 980 4083 
Q 1563 4744 2578 4744 
Q 2900 4744 3203 4694 
Q 3506 4644 3803 4544 
z
" transform="scale(0.015625)"/>
      <path id="DejaVuSans-Bold-34" d="M 2356 3675 
L 1038 1722 
L 2356 1722 
L 2356 3675 
z
M 2156 4666 
L 3494 4666 
L 3494 1722 
L 4159 1722 
L 4159 850 
L 3494 850 
L 3494 0 
L 2356 0 
L 2356 850 
L 288 850 
L 288 1881 
L 2156 4666 
z
" transform="scale(0.015625)"/>
     </defs>
     <use xlink:href="#DejaVuSans-Bold-31"/>
     <use xlink:href="#DejaVuSans-Bold-36" x="69.580078"/>
     <use xlink:href="#DejaVuSans-Bold-2e" x="139.160156"/>
     <use xlink:href="#DejaVuSans-Bold-34" x="177.148438"/>
     <use xlink:href="#DejaVuSans-Bold-25" x="246.728516"/>
    </g>
   </g>
   <g id="text_7">
    <!-- Configuration -->
    <g transform="translate(722.577787 344.1596) scale(0.1 -0.1)">
     <defs>
      <path id="DejaVuSans-Bold-66" d="M 2841 4863 
L 2841 4128 
L 2222 4128 
Q 1984 4128 1890 4042 
Q 1797 3956 1797 3744 
L 1797 3500 
L 2753 3500 
L 2753 2700 
L 1797 2700 
L 1797 0 
L 678 0 
L 678 2700 
L 122 2700 
L 122 3500 
L 678 3500 
L 678 3744 
Q 678 4316 997 4589 
Q 1316 4863 1984 4863 
L 2841 4863 
z
" transform="scale(0.015625)"/>
      <path id="DejaVuSans-Bold-67" d="M 2919 594 
Q 2688 288 2409 144 
Q 2131 0 1766 0 
Q 1125 0 706 504 
Q 288 1009 288 1791 
Q 288 2575 706 3076 
Q 1125 3578 1766 3578 
Q 2131 3578 2409 3434 
Q 2688 3291 2919 2981 
L 2919 3500 
L 4044 3500 
L 4044 353 
Q 4044 -491 3511 -936 
Q 2978 -1381 1966 -1381 
Q 1638 -1381 1331 -1331 
Q 1025 -1281 716 -1178 
L 716 -306 
Q 1009 -475 1290 -558 
Q 1572 -641 1856 -641 
Q 2406 -641 2662 -400 
Q 2919 -159 2919 353 
L 2919 594 
z
M 2181 2772 
Q 1834 2772 1640 2515 
Q 1447 2259 1447 1791 
Q 1447 1309 1634 1061 
Q 1822 813 2181 813 
Q 2531 813 2725 1069 
Q 2919 1325 2919 1791 
Q 2919 2259 2725 2515 
Q 2531 2772 2181 2772 
z
" transform="scale(0.015625)"/>
     </defs>
     <use xlink:href="#DejaVuSans-Bold-43"/>
     <use xlink:href="#DejaVuSans-Bold-6f" x="73.388672"/>
     <use xlink:href="#DejaVuSans-Bold-6e" x="142.089844"/>
     <use xlink:href="#DejaVuSans-Bold-66" x="213.28125"/>
     <use xlink:href="#DejaVuSans-Bold-69" x="256.787109"/>
     <use xlink:href="#DejaVuSans-Bold-67" x="291.064453"/>
     <use xlink:href="#DejaVuSans-Bold-75" x="362.646484"/>
     <use xlink:href="#DejaVuSans-Bold-72" x="433.837891"/>
     <use xlink:href="#DejaVuSans-Bold-61" x="483.154297"/>
     <use xlink:href="#DejaVuSans-Bold-74" x="550.634766"/>
     <use xlink:href="#DejaVuSans-Bold-69" x="598.4375"/>
     <use xlink:href="#DejaVuSans-Bold-6f" x="632.714844"/>
     <use xlink:href="#DejaVuSans-Bold-6e" x="701.416016"/>
    </g>
    <!-- (JSON) -->
    <g transform="translate(722.577787 355.435538) scale(0.1 -0.1)">
     <defs>
      <path id="DejaVuSans-Bold-4a" d="M 588 4666 
L 1791 4666 
L 1791 453 
Q 1791 -419 1317 -850 
Q 844 -1281 -116 -1281 
L -359 -1281 
L -359 -372 
L -172 -372 
Q 203 -372 395 -162 
Q 588 47 588 453 
L 588 4666 
z
" transform="scale(0.015625)"/>
      <path id="DejaVuSans-Bold-53" d="M 3834 4519 
L 3834 3531 
Q 3450 3703 3084 3790 
Q 2719 3878 2394 3878 
Q 1963 3878 1756 3759 
Q 1550 3641 1550 3391 
Q 1550 3203 1689 3098 
Q 1828 2994 2194 2919 
L 2706 2816 
Q 3484 2659 3812 2340 
Q 4141 2022 4141 1434 
Q 4141 663 3683 286 
Q 3225 -91 2284 -91 
Q 1841 -91 1394 -6 
Q 947 78 500 244 
L 500 1259 
Q 947 1022 1364 901 
Q 1781 781 2169 781 
Q 2563 781 2772 912 
Q 2981 1044 2981 1288 
Q 2981 1506 2839 1625 
Q 2697 1744 2272 1838 
L 1806 1941 
Q 1106 2091 782 2419 
Q 459 2747 459 3303 
Q 459 4000 909 4375 
Q 1359 4750 2203 4750 
Q 2588 4750 2994 4692 
Q 3400 4634 3834 4519 
z
" transform="scale(0.015625)"/>
      <path id="DejaVuSans-Bold-4f" d="M 2719 3878 
Q 2169 3878 1866 3472 
Q 1563 3066 1563 2328 
Q 1563 1594 1866 1187 
Q 2169 781 2719 781 
Q 3272 781 3575 1187 
Q 3878 1594 3878 2328 
Q 3878 3066 3575 3472 
Q 3272 3878 2719 3878 
z
M 2719 4750 
Q 3844 4750 4481 4106 
Q 5119 3463 5119 2328 
Q 5119 1197 4481 553 
Q 3844 -91 2719 -91 
Q 1597 -91 958 553 
Q 319 1197 319 2328 
Q 319 3463 958 4106 
Q 1597 4750 2719 4750 
z
" transform="scale(0.015625)"/>
      <path id="DejaVuSans-Bold-4e" d="M 588 4666 
L 1931 4666 
L 3628 1466 
L 3628 4666 
L 4769 4666 
L 4769 0 
L 3425 0 
L 1728 3200 
L 1728 0 
L 588 0 
L 588 4666 
z
" transform="scale(0.015625)"/>
     </defs>
     <use xlink:href="#DejaVuSans-Bold-28"/>
     <use xlink:href="#DejaVuSans-Bold-4a" x="45.703125"/>
     <use xlink:href="#DejaVuSans-Bold-53" x="82.910156"/>
     <use xlink:href="#DejaVuSans-Bold-4f" x="154.931641"/>
     <use xlink:href="#DejaVuSans-Bold-4e" x="239.941406"/>
     <use xlink:href="#DejaVuSans-Bold-29" x="323.632812"/>
    </g>
   </g>
   <g id="text_8">
    <!-- 24.3% -->
    <g style="fill: #ffffff" transform="translate(581.884701 369.672661) scale(0.09 -0.09)">
     <use xlink:href="#DejaVuSans-Bold-32"/>
     <use xlink:href="#DejaVuSans-Bold-34" x="69.580078"/>
     <use xlink:href="#DejaVuSans-Bold-2e" x="139.160156"/>
     <use xlink:href="#DejaVuSans-Bold-33" x="177.148438"/>
     <use xlink:href="#DejaVuSans-Bold-25" x="246.728516"/>
    </g>
   </g>
   <g id="text_9">
    <!-- Generated Code -->
    <g transform="translate(609.576625 135.316062) scale(0.1 -0.1)">
     <defs>
      <path id="DejaVuSans-Bold-47" d="M 4781 347 
Q 4331 128 3847 18 
Q 3363 -91 2847 -91 
Q 1681 -91 1000 561 
Q 319 1213 319 2328 
Q 319 3456 1012 4103 
Q 1706 4750 2913 4750 
Q 3378 4750 3804 4662 
Q 4231 4575 4609 4403 
L 4609 3438 
Q 4219 3659 3833 3768 
Q 3447 3878 3059 3878 
Q 2341 3878 1952 3476 
Q 1563 3075 1563 2328 
Q 1563 1588 1938 1184 
Q 2313 781 3003 781 
Q 3191 781 3352 804 
Q 3513 828 3641 878 
L 3641 1784 
L 2906 1784 
L 2906 2591 
L 4781 2591 
L 4781 347 
z
" transform="scale(0.015625)"/>
     </defs>
     <use xlink:href="#DejaVuSans-Bold-47"/>
     <use xlink:href="#DejaVuSans-Bold-65" x="82.080078"/>
     <use xlink:href="#DejaVuSans-Bold-6e" x="149.902344"/>
     <use xlink:href="#DejaVuSans-Bold-65" x="221.09375"/>
     <use xlink:href="#DejaVuSans-Bold-72" x="288.916016"/>
     <use xlink:href="#DejaVuSans-Bold-61" x="338.232422"/>
     <use xlink:href="#DejaVuSans-Bold-74" x="405.712891"/>
     <use xlink:href="#DejaVuSans-Bold-65" x="453.515625"/>
     <use xlink:href="#DejaVuSans-Bold-64" x="521.337891"/>
     <use xlink:href="#DejaVuSans-Bold-20" x="592.919922"/>
     <use xlink:href="#DejaVuSans-Bold-43" x="627.734375"/>
     <use xlink:href="#DejaVuSans-Bold-6f" x="701.123047"/>
     <use xlink:href="#DejaVuSans-Bold-64" x="769.824219"/>
     <use xlink:href="#DejaVuSans-Bold-65" x="841.40625"/>
    </g>
    <!-- (Python) -->
    <g transform="translate(609.576625 146.513874) scale(0.1 -0.1)">
     <use xlink:href="#DejaVuSans-Bold-28"/>
     <use xlink:href="#DejaVuSans-Bold-50" x="45.703125"/>
     <use xlink:href="#DejaVuSans-Bold-79" x="120.869141"/>
     <use xlink:href="#DejaVuSans-Bold-74" x="186.054688"/>
     <use xlink:href="#DejaVuSans-Bold-68" x="233.857422"/>
     <use xlink:href="#DejaVuSans-Bold-6f" x="305.048828"/>
     <use xlink:href="#DejaVuSans-Bold-6e" x="373.75"/>
     <use xlink:href="#DejaVuSans-Bold-29" x="444.941406"/>
    </g>
   </g>
   <g id="text_10">
    <!-- 2.1% -->
    <g style="fill: #ffffff" transform="translate(527.437146 246.503862) scale(0.09 -0.09)">
     <use xlink:href="#DejaVuSans-Bold-32"/>
     <use xlink:href="#DejaVuSans-Bold-2e" x="69.580078"/>
     <use xlink:href="#DejaVuSans-Bold-31" x="107.568359"/>
     <use xlink:href="#DejaVuSans-Bold-25" x="177.148438"/>
    </g>
   </g>
   <g id="text_11">
    <!-- Utility Scripts -->
    <g transform="translate(514.952618 114.895484) scale(0.1 -0.1)">
     <defs>
      <path id="DejaVuSans-Bold-55" d="M 588 4666 
L 1791 4666 
L 1791 1869 
Q 1791 1291 1980 1042 
Q 2169 794 2597 794 
Q 3028 794 3217 1042 
Q 3406 1291 3406 1869 
L 3406 4666 
L 4609 4666 
L 4609 1869 
Q 4609 878 4112 393 
Q 3616 -91 2597 -91 
Q 1581 -91 1084 393 
Q 588 878 588 1869 
L 588 4666 
z
" transform="scale(0.015625)"/>
     </defs>
     <use xlink:href="#DejaVuSans-Bold-55"/>
     <use xlink:href="#DejaVuSans-Bold-74" x="81.201172"/>
     <use xlink:href="#DejaVuSans-Bold-69" x="129.003906"/>
     <use xlink:href="#DejaVuSans-Bold-6c" x="163.28125"/>
     <use xlink:href="#DejaVuSans-Bold-69" x="197.558594"/>
     <use xlink:href="#DejaVuSans-Bold-74" x="231.835938"/>
     <use xlink:href="#DejaVuSans-Bold-79" x="279.638672"/>
     <use xlink:href="#DejaVuSans-Bold-20" x="344.824219"/>
     <use xlink:href="#DejaVuSans-Bold-53" x="379.638672"/>
     <use xlink:href="#DejaVuSans-Bold-63" x="451.660156"/>
     <use xlink:href="#DejaVuSans-Bold-72" x="510.9375"/>
     <use xlink:href="#DejaVuSans-Bold-69" x="560.253906"/>
     <use xlink:href="#DejaVuSans-Bold-70" x="594.53125"/>
     <use xlink:href="#DejaVuSans-Bold-74" x="666.113281"/>
     <use xlink:href="#DejaVuSans-Bold-73" x="713.916016"/>
    </g>
    <!-- (Python + Shell) -->
    <g transform="translate(514.952618 126.171422) scale(0.1 -0.1)">
     <defs>
      <path id="DejaVuSans-Bold-2b" d="M 3053 4013 
L 3053 2375 
L 4684 2375 
L 4684 1638 
L 3053 1638 
L 3053 0 
L 2309 0 
L 2309 1638 
L 678 1638 
L 678 2375 
L 2309 2375 
L 2309 4013 
L 3053 4013 
z
" transform="scale(0.015625)"/>
     </defs>
     <use xlink:href="#DejaVuSans-Bold-28"/>
     <use xlink:href="#DejaVuSans-Bold-50" x="45.703125"/>
     <use xlink:href="#DejaVuSans-Bold-79" x="120.869141"/>
     <use xlink:href="#DejaVuSans-Bold-74" x="186.054688"/>
     <use xlink:href="#DejaVuSans-Bold-68" x="233.857422"/>
     <use xlink:href="#DejaVuSans-Bold-6f" x="305.048828"/>
     <use xlink:href="#DejaVuSans-Bold-6e" x="373.75"/>
     <use xlink:href="#DejaVuSans-Bold-20" x="444.941406"/>
     <use xlink:href="#DejaVuSans-Bold-2b" x="479.755859"/>
     <use xlink:href="#DejaVuSans-Bold-20" x="563.544922"/>
     <use xlink:href="#DejaVuSans-Bold-53" x="598.359375"/>
     <use xlink:href="#DejaVuSans-Bold-68" x="670.380859"/>
     <use xlink:href="#DejaVuSans-Bold-65" x="741.572266"/>
     <use xlink:href="#DejaVuSans-Bold-6c" x="809.394531"/>
     <use xlink:href="#DejaVuSans-Bold-6c" x="843.671875"/>
     <use xlink:href="#DejaVuSans-Bold-29" x="877.949219"/>
    </g>
   </g>
   <g id="text_12">
    <!-- 8.2% -->
    <g style="fill: #ffffff" transform="translate(470.080356 242.780221) scale(0.09 -0.09)">
     <defs>
      <path id="DejaVuSans-Bold-38" d="M 2228 2088 
Q 1891 2088 1709 1903 
Q 1528 1719 1528 1375 
Q 1528 1031 1709 848 
Q 1891 666 2228 666 
Q 2563 666 2741 848 
Q 2919 1031 2919 1375 
Q 2919 1722 2741 1905 
Q 2563 2088 2228 2088 
z
M 1350 2484 
Q 925 2613 709 2878 
Q 494 3144 494 3541 
Q 494 4131 934 4440 
Q 1375 4750 2228 4750 
Q 3075 4750 3515 4442 
Q 3956 4134 3956 3541 
Q 3956 3144 3739 2878 
Q 3522 2613 3097 2484 
Q 3572 2353 3814 2058 
Q 4056 1763 4056 1313 
Q 4056 619 3595 264 
Q 3134 -91 2228 -91 
Q 1319 -91 855 264 
Q 391 619 391 1313 
Q 391 1763 633 2058 
Q 875 2353 1350 2484 
z
M 1631 3419 
Q 1631 3141 1786 2991 
Q 1941 2841 2228 2841 
Q 2509 2841 2662 2991 
Q 2816 3141 2816 3419 
Q 2816 3697 2662 3845 
Q 2509 3994 2228 3994 
Q 1941 3994 1786 3844 
Q 1631 3694 1631 3419 
z
" transform="scale(0.015625)"/>
     </defs>
     <use xlink:href="#DejaVuSans-Bold-38"/>
     <use xlink:href="#DejaVuSans-Bold-2e" x="69.580078"/>
     <use xlink:href="#DejaVuSans-Bold-32" x="107.568359"/>
     <use xlink:href="#DejaVuSans-Bold-25" x="177.148438"/>
    </g>
   </g>
   <g id="text_13">
    <!-- ArduPilot Methodic Configurator -->
    <g transform="translate(295.67 19.3575) scale(0.16 -0.16)">
     <use xlink:href="#DejaVuSans-Bold-41"/>
     <use xlink:href="#DejaVuSans-Bold-72" x="77.392578"/>
     <use xlink:href="#DejaVuSans-Bold-64" x="126.708984"/>
     <use xlink:href="#DejaVuSans-Bold-75" x="198.291016"/>
     <use xlink:href="#DejaVuSans-Bold-50" x="269.482422"/>
     <use xlink:href="#DejaVuSans-Bold-69" x="342.773438"/>
     <use xlink:href="#DejaVuSans-Bold-6c" x="377.050781"/>
     <use xlink:href="#DejaVuSans-Bold-6f" x="411.328125"/>
     <use xlink:href="#DejaVuSans-Bold-74" x="480.029297"/>
     <use xlink:href="#DejaVuSans-Bold-20" x="527.832031"/>
     <use xlink:href="#DejaVuSans-Bold-4d" x="562.646484"/>
     <use xlink:href="#DejaVuSans-Bold-65" x="662.158203"/>
     <use xlink:href="#DejaVuSans-Bold-74" x="729.980469"/>
     <use xlink:href="#DejaVuSans-Bold-68" x="777.783203"/>
     <use xlink:href="#DejaVuSans-Bold-6f" x="848.974609"/>
     <use xlink:href="#DejaVuSans-Bold-64" x="917.675781"/>
     <use xlink:href="#DejaVuSans-Bold-69" x="989.257812"/>
     <use xlink:href="#DejaVuSans-Bold-63" x="1023.535156"/>
     <use xlink:href="#DejaVuSans-Bold-20" x="1082.8125"/>
     <use xlink:href="#DejaVuSans-Bold-43" x="1117.626953"/>
     <use xlink:href="#DejaVuSans-Bold-6f" x="1191.015625"/>
     <use xlink:href="#DejaVuSans-Bold-6e" x="1259.716797"/>
     <use xlink:href="#DejaVuSans-Bold-66" x="1330.908203"/>
     <use xlink:href="#DejaVuSans-Bold-69" x="1374.414062"/>
     <use xlink:href="#DejaVuSans-Bold-67" x="1408.691406"/>
     <use xlink:href="#DejaVuSans-Bold-75" x="1480.273438"/>
     <use xlink:href="#DejaVuSans-Bold-72" x="1551.464844"/>
     <use xlink:href="#DejaVuSans-Bold-61" x="1600.78125"/>
     <use xlink:href="#DejaVuSans-Bold-74" x="1668.261719"/>
     <use xlink:href="#DejaVuSans-Bold-6f" x="1716.064453"/>
     <use xlink:href="#DejaVuSans-Bold-72" x="1784.765625"/>
    </g>
    <!-- Codebase Structure by Lines of Code -->
    <g transform="translate(275.62 37.399) scale(0.16 -0.16)">
     <defs>
      <path id="DejaVuSans-Bold-62" d="M 2400 722 
Q 2759 722 2948 984 
Q 3138 1247 3138 1747 
Q 3138 2247 2948 2509 
Q 2759 2772 2400 2772 
Q 2041 2772 1848 2508 
Q 1656 2244 1656 1747 
Q 1656 1250 1848 986 
Q 2041 722 2400 722 
z
M 1656 2988 
Q 1888 3294 2169 3439 
Q 2450 3584 2816 3584 
Q 3463 3584 3878 3070 
Q 4294 2556 4294 1747 
Q 4294 938 3878 423 
Q 3463 -91 2816 -91 
Q 2450 -91 2169 54 
Q 1888 200 1656 506 
L 1656 0 
L 538 0 
L 538 4863 
L 1656 4863 
L 1656 2988 
z
" transform="scale(0.015625)"/>
      <path id="DejaVuSans-Bold-4c" d="M 588 4666 
L 1791 4666 
L 1791 909 
L 3903 909 
L 3903 0 
L 588 0 
L 588 4666 
z
" transform="scale(0.015625)"/>
     </defs>
     <use xlink:href="#DejaVuSans-Bold-43"/>
     <use xlink:href="#DejaVuSans-Bold-6f" x="73.388672"/>
     <use xlink:href="#DejaVuSans-Bold-64" x="142.089844"/>
     <use xlink:href="#DejaVuSans-Bold-65" x="213.671875"/>
     <use xlink:href="#DejaVuSans-Bold-62" x="281.494141"/>
     <use xlink:href="#DejaVuSans-Bold-61" x="353.076172"/>
     <use xlink:href="#DejaVuSans-Bold-73" x="420.556641"/>
     <use xlink:href="#DejaVuSans-Bold-65" x="480.078125"/>
     <use xlink:href="#DejaVuSans-Bold-20" x="547.900391"/>
     <use xlink:href="#DejaVuSans-Bold-53" x="582.714844"/>
     <use xlink:href="#DejaVuSans-Bold-74" x="654.736328"/>
     <use xlink:href="#DejaVuSans-Bold-72" x="702.539062"/>
     <use xlink:href="#DejaVuSans-Bold-75" x="751.855469"/>
     <use xlink:href="#DejaVuSans-Bold-63" x="823.046875"/>
     <use xlink:href="#DejaVuSans-Bold-74" x="882.324219"/>
     <use xlink:href="#DejaVuSans-Bold-75" x="930.126953"/>
     <use xlink:href="#DejaVuSans-Bold-72" x="1001.318359"/>
     <use xlink:href="#DejaVuSans-Bold-65" x="1050.634766"/>
     <use xlink:href="#DejaVuSans-Bold-20" x="1118.457031"/>
     <use xlink:href="#DejaVuSans-Bold-62" x="1153.271484"/>
     <use xlink:href="#DejaVuSans-Bold-79" x="1224.853516"/>
     <use xlink:href="#DejaVuSans-Bold-20" x="1290.039062"/>
     <use xlink:href="#DejaVuSans-Bold-4c" x="1324.853516"/>
     <use xlink:href="#DejaVuSans-Bold-69" x="1388.574219"/>
     <use xlink:href="#DejaVuSans-Bold-6e" x="1422.851562"/>
     <use xlink:href="#DejaVuSans-Bold-65" x="1494.042969"/>
     <use xlink:href="#DejaVuSans-Bold-73" x="1561.865234"/>
     <use xlink:href="#DejaVuSans-Bold-20" x="1621.386719"/>
     <use xlink:href="#DejaVuSans-Bold-6f" x="1656.201172"/>
     <use xlink:href="#DejaVuSans-Bold-66" x="1724.902344"/>
     <use xlink:href="#DejaVuSans-Bold-20" x="1768.408203"/>
     <use xlink:href="#DejaVuSans-Bold-43" x="1803.222656"/>
     <use xlink:href="#DejaVuSans-Bold-6f" x="1876.611328"/>
     <use xlink:href="#DejaVuSans-Bold-64" x="1945.3125"/>
     <use xlink:href="#DejaVuSans-Bold-65" x="2016.894531"/>
    </g>
    <!-- (Including Documentation &amp; Configuration) -->
    <g transform="translate(247.19 55.4405) scale(0.16 -0.16)">
     <defs>
      <path id="DejaVuSans-Bold-49" d="M 588 4666 
L 1791 4666 
L 1791 0 
L 588 0 
L 588 4666 
z
" transform="scale(0.015625)"/>
      <path id="DejaVuSans-Bold-26" d="M 2497 3097 
L 3775 1691 
Q 3941 1909 4027 2181 
Q 4113 2453 4128 2797 
L 5100 2797 
Q 5053 2228 4879 1784 
Q 4706 1341 4397 1006 
L 5313 0 
L 3988 0 
L 3681 341 
Q 3353 122 2990 15 
Q 2628 -91 2222 -91 
Q 1400 -91 892 342 
Q 384 775 384 1459 
Q 384 1916 607 2267 
Q 831 2619 1338 2950 
Q 1206 3116 1143 3281 
Q 1081 3447 1081 3628 
Q 1081 4138 1478 4444 
Q 1875 4750 2534 4750 
Q 2819 4750 3126 4704 
Q 3434 4659 3769 4569 
L 3769 3700 
Q 3475 3850 3212 3922 
Q 2950 3994 2700 3994 
Q 2459 3994 2326 3901 
Q 2194 3809 2194 3641 
Q 2194 3534 2270 3398 
Q 2347 3263 2497 3097 
z
M 1875 2322 
Q 1672 2175 1569 1989 
Q 1466 1803 1466 1581 
Q 1466 1222 1731 969 
Q 1997 716 2369 716 
Q 2578 716 2759 780 
Q 2941 844 3097 972 
L 1875 2322 
z
" transform="scale(0.015625)"/>
     </defs>
     <use xlink:href="#DejaVuSans-Bold-28"/>
     <use xlink:href="#DejaVuSans-Bold-49" x="45.703125"/>
     <use xlink:href="#DejaVuSans-Bold-6e" x="82.910156"/>
     <use xlink:href="#DejaVuSans-Bold-63" x="154.101562"/>
     <use xlink:href="#DejaVuSans-Bold-6c" x="213.378906"/>
     <use xlink:href="#DejaVuSans-Bold-75" x="247.65625"/>
     <use xlink:href="#DejaVuSans-Bold-64" x="318.847656"/>
     <use xlink:href="#DejaVuSans-Bold-69" x="390.429688"/>
     <use xlink:href="#DejaVuSans-Bold-6e" x="424.707031"/>
     <use xlink:href="#DejaVuSans-Bold-67" x="495.898438"/>
     <use xlink:href="#DejaVuSans-Bold-20" x="567.480469"/>
     <use xlink:href="#DejaVuSans-Bold-44" x="602.294922"/>
     <use xlink:href="#DejaVuSans-Bold-6f" x="685.302734"/>
     <use xlink:href="#DejaVuSans-Bold-63" x="754.003906"/>
     <use xlink:href="#DejaVuSans-Bold-75" x="813.28125"/>
     <use xlink:href="#DejaVuSans-Bold-6d" x="884.472656"/>
     <use xlink:href="#DejaVuSans-Bold-65" x="988.671875"/>
     <use xlink:href="#DejaVuSans-Bold-6e" x="1056.494141"/>
     <use xlink:href="#DejaVuSans-Bold-74" x="1127.685547"/>
     <use xlink:href="#DejaVuSans-Bold-61" x="1175.488281"/>
     <use xlink:href="#DejaVuSans-Bold-74" x="1242.96875"/>
     <use xlink:href="#DejaVuSans-Bold-69" x="1290.771484"/>
     <use xlink:href="#DejaVuSans-Bold-6f" x="1325.048828"/>
     <use xlink:href="#DejaVuSans-Bold-6e" x="1393.75"/>
     <use xlink:href="#DejaVuSans-Bold-20" x="1464.941406"/>
     <use xlink:href="#DejaVuSans-Bold-26" x="1499.755859"/>
     <use xlink:href="#DejaVuSans-Bold-20" x="1586.962891"/>
     <use xlink:href="#DejaVuSans-Bold-43" x="1621.777344"/>
     <use xlink:href="#DejaVuSans-Bold-6f" x="1695.166016"/>
     <use xlink:href="#DejaVuSans-Bold-6e" x="1763.867188"/>
     <use xlink:href="#DejaVuSans-Bold-66" x="1835.058594"/>
     <use xlink:href="#DejaVuSans-Bold-69" x="1878.564453"/>
     <use xlink:href="#DejaVuSans-Bold-67" x="1912.841797"/>
     <use xlink:href="#DejaVuSans-Bold-75" x="1984.423828"/>
     <use xlink:href="#DejaVuSans-Bold-72" x="2055.615234"/>
     <use xlink:href="#DejaVuSans-Bold-61" x="2104.931641"/>
     <use xlink:href="#DejaVuSans-Bold-74" x="2172.412109"/>
     <use xlink:href="#DejaVuSans-Bold-69" x="2220.214844"/>
     <use xlink:href="#DejaVuSans-Bold-6f" x="2254.492188"/>
     <use xlink:href="#DejaVuSans-Bold-6e" x="2323.193359"/>
     <use xlink:href="#DejaVuSans-Bold-29" x="2394.384766"/>
    </g>
   </g>
   <g id="legend_1">
    <g id="patch_8">
     <path d="M 765.431 440.2465 
L 967.853656 440.2465 
Q 969.653656 440.2465 969.653656 438.4465 
L 969.653656 345.9065 
Q 969.653656 344.1065 967.853656 344.1065 
L 765.431 344.1065 
Q 763.631 344.1065 763.631 345.9065 
L 763.631 438.4465 
Q 763.631 440.2465 765.431 440.2465 
z
" style="fill: #ffffff; opacity: 0.8; stroke: #cccccc; stroke-linejoin: miter"/>
    </g>
    <g id="text_14">
     <!-- Code Distribution -->
     <g transform="translate(823.082953 355.304937) scale(0.1 -0.1)">
      <defs>
       <path id="DejaVuSans-43" d="M 4122 4306 
L 4122 3641 
Q 3803 3938 3442 4084 
Q 3081 4231 2675 4231 
Q 1875 4231 1450 3742 
Q 1025 3253 1025 2328 
Q 1025 1406 1450 917 
Q 1875 428 2675 428 
Q 3081 428 3442 575 
Q 3803 722 4122 1019 
L 4122 359 
Q 3791 134 3420 21 
Q 3050 -91 2638 -91 
Q 1578 -91 968 557 
Q 359 1206 359 2328 
Q 359 3453 968 4101 
Q 1578 4750 2638 4750 
Q 3056 4750 3426 4639 
Q 3797 4528 4122 4306 
z
" transform="scale(0.015625)"/>
       <path id="DejaVuSans-6f" d="M 1959 3097 
Q 1497 3097 1228 2736 
Q 959 2375 959 1747 
Q 959 1119 1226 758 
Q 1494 397 1959 397 
Q 2419 397 2687 759 
Q 2956 1122 2956 1747 
Q 2956 2369 2687 2733 
Q 2419 3097 1959 3097 
z
M 1959 3584 
Q 2709 3584 3137 3096 
Q 3566 2609 3566 1747 
Q 3566 888 3137 398 
Q 2709 -91 1959 -91 
Q 1206 -91 779 398 
Q 353 888 353 1747 
Q 353 2609 779 3096 
Q 1206 3584 1959 3584 
z
" transform="scale(0.015625)"/>
       <path id="DejaVuSans-64" d="M 2906 2969 
L 2906 4863 
L 3481 4863 
L 3481 0 
L 2906 0 
L 2906 525 
Q 2725 213 2448 61 
Q 2172 -91 1784 -91 
Q 1150 -91 751 415 
Q 353 922 353 1747 
Q 353 2572 751 3078 
Q 1150 3584 1784 3584 
Q 2172 3584 2448 3432 
Q 2725 3281 2906 2969 
z
M 947 1747 
Q 947 1113 1208 752 
Q 1469 391 1925 391 
Q 2381 391 2643 752 
Q 2906 1113 2906 1747 
Q 2906 2381 2643 2742 
Q 2381 3103 1925 3103 
Q 1469 3103 1208 2742 
Q 947 2381 947 1747 
z
" transform="scale(0.015625)"/>
       <path id="DejaVuSans-65" d="M 3597 1894 
L 3597 1613 
L 953 1613 
Q 991 1019 1311 708 
Q 1631 397 2203 397 
Q 2534 397 2845 478 
Q 3156 559 3463 722 
L 3463 178 
Q 3153 47 2828 -22 
Q 2503 -91 2169 -91 
Q 1331 -91 842 396 
Q 353 884 353 1716 
Q 353 2575 817 3079 
Q 1281 3584 2069 3584 
Q 2775 3584 3186 3129 
Q 3597 2675 3597 1894 
z
M 3022 2063 
Q 3016 2534 2758 2815 
Q 2500 3097 2075 3097 
Q 1594 3097 1305 2825 
Q 1016 2553 972 2059 
L 3022 2063 
z
" transform="scale(0.015625)"/>
       <path id="DejaVuSans-20" transform="scale(0.015625)"/>
       <path id="DejaVuSans-44" d="M 1259 4147 
L 1259 519 
L 2022 519 
Q 2988 519 3436 956 
Q 3884 1394 3884 2338 
Q 3884 3275 3436 3711 
Q 2988 4147 2022 4147 
L 1259 4147 
z
M 628 4666 
L 1925 4666 
Q 3281 4666 3915 4102 
Q 4550 3538 4550 2338 
Q 4550 1131 3912 565 
Q 3275 0 1925 0 
L 628 0 
L 628 4666 
z
" transform="scale(0.015625)"/>
       <path id="DejaVuSans-69" d="M 603 3500 
L 1178 3500 
L 1178 0 
L 603 0 
L 603 3500 
z
M 603 4863 
L 1178 4863 
L 1178 4134 
L 603 4134 
L 603 4863 
z
" transform="scale(0.015625)"/>
       <path id="DejaVuSans-73" d="M 2834 3397 
L 2834 2853 
Q 2591 2978 2328 3040 
Q 2066 3103 1784 3103 
Q 1356 3103 1142 2972 
Q 928 2841 928 2578 
Q 928 2378 1081 2264 
Q 1234 2150 1697 2047 
L 1894 2003 
Q 2506 1872 2764 1633 
Q 3022 1394 3022 966 
Q 3022 478 2636 193 
Q 2250 -91 1575 -91 
Q 1294 -91 989 -36 
Q 684 19 347 128 
L 347 722 
Q 666 556 975 473 
Q 1284 391 1588 391 
Q 1994 391 2212 530 
Q 2431 669 2431 922 
Q 2431 1156 2273 1281 
Q 2116 1406 1581 1522 
L 1381 1569 
Q 847 1681 609 1914 
Q 372 2147 372 2553 
Q 372 3047 722 3315 
Q 1072 3584 1716 3584 
Q 2034 3584 2315 3537 
Q 2597 3491 2834 3397 
z
" transform="scale(0.015625)"/>
       <path id="DejaVuSans-74" d="M 1172 4494 
L 1172 3500 
L 2356 3500 
L 2356 3053 
L 1172 3053 
L 1172 1153 
Q 1172 725 1289 603 
Q 1406 481 1766 481 
L 2356 481 
L 2356 0 
L 1766 0 
Q 1100 0 847 248 
Q 594 497 594 1153 
L 594 3053 
L 172 3053 
L 172 3500 
L 594 3500 
L 594 4494 
L 1172 4494 
z
" transform="scale(0.015625)"/>
       <path id="DejaVuSans-72" d="M 2631 2963 
Q 2534 3019 2420 3045 
Q 2306 3072 2169 3072 
Q 1681 3072 1420 2755 
Q 1159 2438 1159 1844 
L 1159 0 
L 581 0 
L 581 3500 
L 1159 3500 
L 1159 2956 
Q 1341 3275 1631 3429 
Q 1922 3584 2338 3584 
Q 2397 3584 2469 3576 
Q 2541 3569 2628 3553 
L 2631 2963 
z
" transform="scale(0.015625)"/>
       <path id="DejaVuSans-62" d="M 3116 1747 
Q 3116 2381 2855 2742 
Q 2594 3103 2138 3103 
Q 1681 3103 1420 2742 
Q 1159 2381 1159 1747 
Q 1159 1113 1420 752 
Q 1681 391 2138 391 
Q 2594 391 2855 752 
Q 3116 1113 3116 1747 
z
M 1159 2969 
Q 1341 3281 1617 3432 
Q 1894 3584 2278 3584 
Q 2916 3584 3314 3078 
Q 3713 2572 3713 1747 
Q 3713 922 3314 415 
Q 2916 -91 2278 -91 
Q 1894 -91 1617 61 
Q 1341 213 1159 525 
L 1159 0 
L 581 0 
L 581 4863 
L 1159 4863 
L 1159 2969 
z
" transform="scale(0.015625)"/>
       <path id="DejaVuSans-75" d="M 544 1381 
L 544 3500 
L 1119 3500 
L 1119 1403 
Q 1119 906 1312 657 
Q 1506 409 1894 409 
Q 2359 409 2629 706 
Q 2900 1003 2900 1516 
L 2900 3500 
L 3475 3500 
L 3475 0 
L 2900 0 
L 2900 538 
Q 2691 219 2414 64 
Q 2138 -91 1772 -91 
Q 1169 -91 856 284 
Q 544 659 544 1381 
z
M 1991 3584 
L 1991 3584 
z
" transform="scale(0.015625)"/>
       <path id="DejaVuSans-6e" d="M 3513 2113 
L 3513 0 
L 2938 0 
L 2938 2094 
Q 2938 2591 2744 2837 
Q 2550 3084 2163 3084 
Q 1697 3084 1428 2787 
Q 1159 2491 1159 1978 
L 1159 0 
L 581 0 
L 581 3500 
L 1159 3500 
L 1159 2956 
Q 1366 3272 1645 3428 
Q 1925 3584 2291 3584 
Q 2894 3584 3203 3211 
Q 3513 2838 3513 2113 
z
" transform="scale(0.015625)"/>
      </defs>
      <use xlink:href="#DejaVuSans-43"/>
      <use xlink:href="#DejaVuSans-6f" x="69.824219"/>
      <use xlink:href="#DejaVuSans-64" x="131.005859"/>
      <use xlink:href="#DejaVuSans-65" x="194.482422"/>
      <use xlink:href="#DejaVuSans-20" x="256.005859"/>
      <use xlink:href="#DejaVuSans-44" x="287.792969"/>
      <use xlink:href="#DejaVuSans-69" x="364.794922"/>
      <use xlink:href="#DejaVuSans-73" x="392.578125"/>
      <use xlink:href="#DejaVuSans-74" x="444.677734"/>
      <use xlink:href="#DejaVuSans-72" x="483.886719"/>
      <use xlink:href="#DejaVuSans-69" x="525"/>
      <use xlink:href="#DejaVuSans-62" x="552.783203"/>
      <use xlink:href="#DejaVuSans-75" x="616.259766"/>
      <use xlink:href="#DejaVuSans-74" x="679.638672"/>
      <use xlink:href="#DejaVuSans-69" x="718.847656"/>
      <use xlink:href="#DejaVuSans-6f" x="746.630859"/>
      <use xlink:href="#DejaVuSans-6e" x="807.8125"/>
     </g>
    </g>
    <g id="patch_9">
     <path d="M 767.231 368.723219 
L 785.231 368.723219 
L 785.231 362.423219 
L 767.231 362.423219 
z
" style="fill: #2e8b57"/>
    </g>
    <g id="text_15">
     <!-- Tests: 16,675 lines (29.7%) -->
     <g transform="translate(792.431 368.723219) scale(0.09 -0.09)">
      <defs>
       <path id="DejaVuSans-54" d="M -19 4666 
L 3928 4666 
L 3928 4134 
L 2272 4134 
L 2272 0 
L 1638 0 
L 1638 4134 
L -19 4134 
L -19 4666 
z
" transform="scale(0.015625)"/>
       <path id="DejaVuSans-3a" d="M 750 794 
L 1409 794 
L 1409 0 
L 750 0 
L 750 794 
z
M 750 3309 
L 1409 3309 
L 1409 2516 
L 750 2516 
L 750 3309 
z
" transform="scale(0.015625)"/>
       <path id="DejaVuSans-31" d="M 794 531 
L 1825 531 
L 1825 4091 
L 703 3866 
L 703 4441 
L 1819 4666 
L 2450 4666 
L 2450 531 
L 3481 531 
L 3481 0 
L 794 0 
L 794 531 
z
" transform="scale(0.015625)"/>
       <path id="DejaVuSans-36" d="M 2113 2584 
Q 1688 2584 1439 2293 
Q 1191 2003 1191 1497 
Q 1191 994 1439 701 
Q 1688 409 2113 409 
Q 2538 409 2786 701 
Q 3034 994 3034 1497 
Q 3034 2003 2786 2293 
Q 2538 2584 2113 2584 
z
M 3366 4563 
L 3366 3988 
Q 3128 4100 2886 4159 
Q 2644 4219 2406 4219 
Q 1781 4219 1451 3797 
Q 1122 3375 1075 2522 
Q 1259 2794 1537 2939 
Q 1816 3084 2150 3084 
Q 2853 3084 3261 2657 
Q 3669 2231 3669 1497 
Q 3669 778 3244 343 
Q 2819 -91 2113 -91 
Q 1303 -91 875 529 
Q 447 1150 447 2328 
Q 447 3434 972 4092 
Q 1497 4750 2381 4750 
Q 2619 4750 2861 4703 
Q 3103 4656 3366 4563 
z
" transform="scale(0.015625)"/>
       <path id="DejaVuSans-2c" d="M 750 794 
L 1409 794 
L 1409 256 
L 897 -744 
L 494 -744 
L 750 256 
L 750 794 
z
" transform="scale(0.015625)"/>
       <path id="DejaVuSans-37" d="M 525 4666 
L 3525 4666 
L 3525 4397 
L 1831 0 
L 1172 0 
L 2766 4134 
L 525 4134 
L 525 4666 
z
" transform="scale(0.015625)"/>
       <path id="DejaVuSans-35" d="M 691 4666 
L 3169 4666 
L 3169 4134 
L 1269 4134 
L 1269 2991 
Q 1406 3038 1543 3061 
Q 1681 3084 1819 3084 
Q 2600 3084 3056 2656 
Q 3513 2228 3513 1497 
Q 3513 744 3044 326 
Q 2575 -91 1722 -91 
Q 1428 -91 1123 -41 
Q 819 9 494 109 
L 494 744 
Q 775 591 1075 516 
Q 1375 441 1709 441 
Q 2250 441 2565 725 
Q 2881 1009 2881 1497 
Q 2881 1984 2565 2268 
Q 2250 2553 1709 2553 
Q 1456 2553 1204 2497 
Q 953 2441 691 2322 
L 691 4666 
z
" transform="scale(0.015625)"/>
       <path id="DejaVuSans-6c" d="M 603 4863 
L 1178 4863 
L 1178 0 
L 603 0 
L 603 4863 
z
" transform="scale(0.015625)"/>
       <path id="DejaVuSans-28" d="M 1984 4856 
Q 1566 4138 1362 3434 
Q 1159 2731 1159 2009 
Q 1159 1288 1364 580 
Q 1569 -128 1984 -844 
L 1484 -844 
Q 1016 -109 783 600 
Q 550 1309 550 2009 
Q 550 2706 781 3412 
Q 1013 4119 1484 4856 
L 1984 4856 
z
" transform="scale(0.015625)"/>
       <path id="DejaVuSans-32" d="M 1228 531 
L 3431 531 
L 3431 0 
L 469 0 
L 469 531 
Q 828 903 1448 1529 
Q 2069 2156 2228 2338 
Q 2531 2678 2651 2914 
Q 2772 3150 2772 3378 
Q 2772 3750 2511 3984 
Q 2250 4219 1831 4219 
Q 1534 4219 1204 4116 
Q 875 4013 500 3803 
L 500 4441 
Q 881 4594 1212 4672 
Q 1544 4750 1819 4750 
Q 2544 4750 2975 4387 
Q 3406 4025 3406 3419 
Q 3406 3131 3298 2873 
Q 3191 2616 2906 2266 
Q 2828 2175 2409 1742 
Q 1991 1309 1228 531 
z
" transform="scale(0.015625)"/>
       <path id="DejaVuSans-39" d="M 703 97 
L 703 672 
Q 941 559 1184 500 
Q 1428 441 1663 441 
Q 2288 441 2617 861 
Q 2947 1281 2994 2138 
Q 2813 1869 2534 1725 
Q 2256 1581 1919 1581 
Q 1219 1581 811 2004 
Q 403 2428 403 3163 
Q 403 3881 828 4315 
Q 1253 4750 1959 4750 
Q 2769 4750 3195 4129 
Q 3622 3509 3622 2328 
Q 3622 1225 3098 567 
Q 2575 -91 1691 -91 
Q 1453 -91 1209 -44 
Q 966 3 703 97 
z
M 1959 2075 
Q 2384 2075 2632 2365 
Q 2881 2656 2881 3163 
Q 2881 3666 2632 3958 
Q 2384 4250 1959 4250 
Q 1534 4250 1286 3958 
Q 1038 3666 1038 3163 
Q 1038 2656 1286 2365 
Q 1534 2075 1959 2075 
z
" transform="scale(0.015625)"/>
       <path id="DejaVuSans-2e" d="M 684 794 
L 1344 794 
L 1344 0 
L 684 0 
L 684 794 
z
" transform="scale(0.015625)"/>
       <path id="DejaVuSans-25" d="M 4653 2053 
Q 4381 2053 4226 1822 
Q 4072 1591 4072 1178 
Q 4072 772 4226 539 
Q 4381 306 4653 306 
Q 4919 306 5073 539 
Q 5228 772 5228 1178 
Q 5228 1588 5073 1820 
Q 4919 2053 4653 2053 
z
M 4653 2450 
Q 5147 2450 5437 2106 
Q 5728 1763 5728 1178 
Q 5728 594 5436 251 
Q 5144 -91 4653 -91 
Q 4153 -91 3862 251 
Q 3572 594 3572 1178 
Q 3572 1766 3864 2108 
Q 4156 2450 4653 2450 
z
M 1428 4353 
Q 1159 4353 1004 4120 
Q 850 3888 850 3481 
Q 850 3069 1003 2837 
Q 1156 2606 1428 2606 
Q 1700 2606 1854 2837 
Q 2009 3069 2009 3481 
Q 2009 3884 1853 4118 
Q 1697 4353 1428 4353 
z
M 4250 4750 
L 4750 4750 
L 1831 -91 
L 1331 -91 
L 4250 4750 
z
M 1428 4750 
Q 1922 4750 2215 4408 
Q 2509 4066 2509 3481 
Q 2509 2891 2217 2550 
Q 1925 2209 1428 2209 
Q 931 2209 642 2551 
Q 353 2894 353 3481 
Q 353 4063 643 4406 
Q 934 4750 1428 4750 
z
" transform="scale(0.015625)"/>
       <path id="DejaVuSans-29" d="M 513 4856 
L 1013 4856 
Q 1481 4119 1714 3412 
Q 1947 2706 1947 2009 
Q 1947 1309 1714 600 
Q 1481 -109 1013 -844 
L 513 -844 
Q 928 -128 1133 580 
Q 1338 1288 1338 2009 
Q 1338 2731 1133 3434 
Q 928 4138 513 4856 
z
" transform="scale(0.015625)"/>
      </defs>
      <use xlink:href="#DejaVuSans-54"/>
      <use xlink:href="#DejaVuSans-65" x="44.083984"/>
      <use xlink:href="#DejaVuSans-73" x="105.607422"/>
      <use xlink:href="#DejaVuSans-74" x="157.707031"/>
      <use xlink:href="#DejaVuSans-73" x="196.916016"/>
      <use xlink:href="#DejaVuSans-3a" x="249.015625"/>
      <use xlink:href="#DejaVuSans-20" x="282.707031"/>
      <use xlink:href="#DejaVuSans-31" x="314.494141"/>
      <use xlink:href="#DejaVuSans-36" x="378.117188"/>
      <use xlink:href="#DejaVuSans-2c" x="441.740234"/>
      <use xlink:href="#DejaVuSans-36" x="473.527344"/>
      <use xlink:href="#DejaVuSans-37" x="537.150391"/>
      <use xlink:href="#DejaVuSans-35" x="600.773438"/>
      <use xlink:href="#DejaVuSans-20" x="664.396484"/>
      <use xlink:href="#DejaVuSans-6c" x="696.183594"/>
      <use xlink:href="#DejaVuSans-69" x="723.966797"/>
      <use xlink:href="#DejaVuSans-6e" x="751.75"/>
      <use xlink:href="#DejaVuSans-65" x="815.128906"/>
      <use xlink:href="#DejaVuSans-73" x="876.652344"/>
      <use xlink:href="#DejaVuSans-20" x="928.751953"/>
      <use xlink:href="#DejaVuSans-28" x="960.539062"/>
      <use xlink:href="#DejaVuSans-32" x="999.552734"/>
      <use xlink:href="#DejaVuSans-39" x="1063.175781"/>
      <use xlink:href="#DejaVuSans-2e" x="1126.798828"/>
      <use xlink:href="#DejaVuSans-37" x="1158.585938"/>
      <use xlink:href="#DejaVuSans-25" x="1222.208984"/>
      <use xlink:href="#DejaVuSans-29" x="1317.228516"/>
     </g>
    </g>
    <g id="patch_10">
     <path d="M 767.231 381.933531 
L 785.231 381.933531 
L 785.231 375.633531 
L 767.231 375.633531 
z
" style="fill: #4682b4"/>
    </g>
    <g id="text_16">
     <!-- Core Application: 10,806 lines (19.3%) -->
     <g transform="translate(792.431 381.933531) scale(0.09 -0.09)">
      <defs>
       <path id="DejaVuSans-41" d="M 2188 4044 
L 1331 1722 
L 3047 1722 
L 2188 4044 
z
M 1831 4666 
L 2547 4666 
L 4325 0 
L 3669 0 
L 3244 1197 
L 1141 1197 
L 716 0 
L 50 0 
L 1831 4666 
z
" transform="scale(0.015625)"/>
       <path id="DejaVuSans-70" d="M 1159 525 
L 1159 -1331 
L 581 -1331 
L 581 3500 
L 1159 3500 
L 1159 2969 
Q 1341 3281 1617 3432 
Q 1894 3584 2278 3584 
Q 2916 3584 3314 3078 
Q 3713 2572 3713 1747 
Q 3713 922 3314 415 
Q 2916 -91 2278 -91 
Q 1894 -91 1617 61 
Q 1341 213 1159 525 
z
M 3116 1747 
Q 3116 2381 2855 2742 
Q 2594 3103 2138 3103 
Q 1681 3103 1420 2742 
Q 1159 2381 1159 1747 
Q 1159 1113 1420 752 
Q 1681 391 2138 391 
Q 2594 391 2855 752 
Q 3116 1113 3116 1747 
z
" transform="scale(0.015625)"/>
       <path id="DejaVuSans-63" d="M 3122 3366 
L 3122 2828 
Q 2878 2963 2633 3030 
Q 2388 3097 2138 3097 
Q 1578 3097 1268 2742 
Q 959 2388 959 1747 
Q 959 1106 1268 751 
Q 1578 397 2138 397 
Q 2388 397 2633 464 
Q 2878 531 3122 666 
L 3122 134 
Q 2881 22 2623 -34 
Q 2366 -91 2075 -91 
Q 1284 -91 818 406 
Q 353 903 353 1747 
Q 353 2603 823 3093 
Q 1294 3584 2113 3584 
Q 2378 3584 2631 3529 
Q 2884 3475 3122 3366 
z
" transform="scale(0.015625)"/>
       <path id="DejaVuSans-61" d="M 2194 1759 
Q 1497 1759 1228 1600 
Q 959 1441 959 1056 
Q 959 750 1161 570 
Q 1363 391 1709 391 
Q 2188 391 2477 730 
Q 2766 1069 2766 1631 
L 2766 1759 
L 2194 1759 
z
M 3341 1997 
L 3341 0 
L 2766 0 
L 2766 531 
Q 2569 213 2275 61 
Q 1981 -91 1556 -91 
Q 1019 -91 701 211 
Q 384 513 384 1019 
Q 384 1609 779 1909 
Q 1175 2209 1959 2209 
L 2766 2209 
L 2766 2266 
Q 2766 2663 2505 2880 
Q 2244 3097 1772 3097 
Q 1472 3097 1187 3025 
Q 903 2953 641 2809 
L 641 3341 
Q 956 3463 1253 3523 
Q 1550 3584 1831 3584 
Q 2591 3584 2966 3190 
Q 3341 2797 3341 1997 
z
" transform="scale(0.015625)"/>
       <path id="DejaVuSans-30" d="M 2034 4250 
Q 1547 4250 1301 3770 
Q 1056 3291 1056 2328 
Q 1056 1369 1301 889 
Q 1547 409 2034 409 
Q 2525 409 2770 889 
Q 3016 1369 3016 2328 
Q 3016 3291 2770 3770 
Q 2525 4250 2034 4250 
z
M 2034 4750 
Q 2819 4750 3233 4129 
Q 3647 3509 3647 2328 
Q 3647 1150 3233 529 
Q 2819 -91 2034 -91 
Q 1250 -91 836 529 
Q 422 1150 422 2328 
Q 422 3509 836 4129 
Q 1250 4750 2034 4750 
z
" transform="scale(0.015625)"/>
       <path id="DejaVuSans-38" d="M 2034 2216 
Q 1584 2216 1326 1975 
Q 1069 1734 1069 1313 
Q 1069 891 1326 650 
Q 1584 409 2034 409 
Q 2484 409 2743 651 
Q 3003 894 3003 1313 
Q 3003 1734 2745 1975 
Q 2488 2216 2034 2216 
z
M 1403 2484 
Q 997 2584 770 2862 
Q 544 3141 544 3541 
Q 544 4100 942 4425 
Q 1341 4750 2034 4750 
Q 2731 4750 3128 4425 
Q 3525 4100 3525 3541 
Q 3525 3141 3298 2862 
Q 3072 2584 2669 2484 
Q 3125 2378 3379 2068 
Q 3634 1759 3634 1313 
Q 3634 634 3220 271 
Q 2806 -91 2034 -91 
Q 1263 -91 848 271 
Q 434 634 434 1313 
Q 434 1759 690 2068 
Q 947 2378 1403 2484 
z
M 1172 3481 
Q 1172 3119 1398 2916 
Q 1625 2713 2034 2713 
Q 2441 2713 2670 2916 
Q 2900 3119 2900 3481 
Q 2900 3844 2670 4047 
Q 2441 4250 2034 4250 
Q 1625 4250 1398 4047 
Q 1172 3844 1172 3481 
z
" transform="scale(0.015625)"/>
       <path id="DejaVuSans-33" d="M 2597 2516 
Q 3050 2419 3304 2112 
Q 3559 1806 3559 1356 
Q 3559 666 3084 287 
Q 2609 -91 1734 -91 
Q 1441 -91 1130 -33 
Q 819 25 488 141 
L 488 750 
Q 750 597 1062 519 
Q 1375 441 1716 441 
Q 2309 441 2620 675 
Q 2931 909 2931 1356 
Q 2931 1769 2642 2001 
Q 2353 2234 1838 2234 
L 1294 2234 
L 1294 2753 
L 1863 2753 
Q 2328 2753 2575 2939 
Q 2822 3125 2822 3475 
Q 2822 3834 2567 4026 
Q 2313 4219 1838 4219 
Q 1578 4219 1281 4162 
Q 984 4106 628 3988 
L 628 4550 
Q 988 4650 1302 4700 
Q 1616 4750 1894 4750 
Q 2613 4750 3031 4423 
Q 3450 4097 3450 3541 
Q 3450 3153 3228 2886 
Q 3006 2619 2597 2516 
z
" transform="scale(0.015625)"/>
      </defs>
      <use xlink:href="#DejaVuSans-43"/>
      <use xlink:href="#DejaVuSans-6f" x="69.824219"/>
      <use xlink:href="#DejaVuSans-72" x="131.005859"/>
      <use xlink:href="#DejaVuSans-65" x="169.869141"/>
      <use xlink:href="#DejaVuSans-20" x="231.392578"/>
      <use xlink:href="#DejaVuSans-41" x="263.179688"/>
      <use xlink:href="#DejaVuSans-70" x="331.587891"/>
      <use xlink:href="#DejaVuSans-70" x="395.064453"/>
      <use xlink:href="#DejaVuSans-6c" x="458.541016"/>
      <use xlink:href="#DejaVuSans-69" x="486.324219"/>
      <use xlink:href="#DejaVuSans-63" x="514.107422"/>
      <use xlink:href="#DejaVuSans-61" x="569.087891"/>
      <use xlink:href="#DejaVuSans-74" x="630.367188"/>
      <use xlink:href="#DejaVuSans-69" x="669.576172"/>
      <use xlink:href="#DejaVuSans-6f" x="697.359375"/>
      <use xlink:href="#DejaVuSans-6e" x="758.541016"/>
      <use xlink:href="#DejaVuSans-3a" x="821.919922"/>
      <use xlink:href="#DejaVuSans-20" x="855.611328"/>
      <use xlink:href="#DejaVuSans-31" x="887.398438"/>
      <use xlink:href="#DejaVuSans-30" x="951.021484"/>
      <use xlink:href="#DejaVuSans-2c" x="1014.644531"/>
      <use xlink:href="#DejaVuSans-38" x="1046.431641"/>
      <use xlink:href="#DejaVuSans-30" x="1110.054688"/>
      <use xlink:href="#DejaVuSans-36" x="1173.677734"/>
      <use xlink:href="#DejaVuSans-20" x="1237.300781"/>
      <use xlink:href="#DejaVuSans-6c" x="1269.087891"/>
      <use xlink:href="#DejaVuSans-69" x="1296.871094"/>
      <use xlink:href="#DejaVuSans-6e" x="1324.654297"/>
      <use xlink:href="#DejaVuSans-65" x="1388.033203"/>
      <use xlink:href="#DejaVuSans-73" x="1449.556641"/>
      <use xlink:href="#DejaVuSans-20" x="1501.65625"/>
      <use xlink:href="#DejaVuSans-28" x="1533.443359"/>
      <use xlink:href="#DejaVuSans-31" x="1572.457031"/>
      <use xlink:href="#DejaVuSans-39" x="1636.080078"/>
      <use xlink:href="#DejaVuSans-2e" x="1699.703125"/>
      <use xlink:href="#DejaVuSans-33" x="1731.490234"/>
      <use xlink:href="#DejaVuSans-25" x="1795.113281"/>
      <use xlink:href="#DejaVuSans-29" x="1890.132812"/>
     </g>
    </g>
    <g id="patch_11">
     <path d="M 767.231 395.143844 
L 785.231 395.143844 
L 785.231 388.843844 
L 767.231 388.843844 
z
" style="fill: #9370db"/>
    </g>
    <g id="text_17">
     <!-- Documentation: 9,170 lines (16.4%) -->
     <g transform="translate(792.431 395.143844) scale(0.09 -0.09)">
      <defs>
       <path id="DejaVuSans-6d" d="M 3328 2828 
Q 3544 3216 3844 3400 
Q 4144 3584 4550 3584 
Q 5097 3584 5394 3201 
Q 5691 2819 5691 2113 
L 5691 0 
L 5113 0 
L 5113 2094 
Q 5113 2597 4934 2840 
Q 4756 3084 4391 3084 
Q 3944 3084 3684 2787 
Q 3425 2491 3425 1978 
L 3425 0 
L 2847 0 
L 2847 2094 
Q 2847 2600 2669 2842 
Q 2491 3084 2119 3084 
Q 1678 3084 1418 2786 
Q 1159 2488 1159 1978 
L 1159 0 
L 581 0 
L 581 3500 
L 1159 3500 
L 1159 2956 
Q 1356 3278 1631 3431 
Q 1906 3584 2284 3584 
Q 2666 3584 2933 3390 
Q 3200 3197 3328 2828 
z
" transform="scale(0.015625)"/>
       <path id="DejaVuSans-34" d="M 2419 4116 
L 825 1625 
L 2419 1625 
L 2419 4116 
z
M 2253 4666 
L 3047 4666 
L 3047 1625 
L 3713 1625 
L 3713 1100 
L 3047 1100 
L 3047 0 
L 2419 0 
L 2419 1100 
L 313 1100 
L 313 1709 
L 2253 4666 
z
" transform="scale(0.015625)"/>
      </defs>
      <use xlink:href="#DejaVuSans-44"/>
      <use xlink:href="#DejaVuSans-6f" x="77.001953"/>
      <use xlink:href="#DejaVuSans-63" x="138.183594"/>
      <use xlink:href="#DejaVuSans-75" x="193.164062"/>
      <use xlink:href="#DejaVuSans-6d" x="256.542969"/>
      <use xlink:href="#DejaVuSans-65" x="353.955078"/>
      <use xlink:href="#DejaVuSans-6e" x="415.478516"/>
      <use xlink:href="#DejaVuSans-74" x="478.857422"/>
      <use xlink:href="#DejaVuSans-61" x="518.066406"/>
      <use xlink:href="#DejaVuSans-74" x="579.345703"/>
      <use xlink:href="#DejaVuSans-69" x="618.554688"/>
      <use xlink:href="#DejaVuSans-6f" x="646.337891"/>
      <use xlink:href="#DejaVuSans-6e" x="707.519531"/>
      <use xlink:href="#DejaVuSans-3a" x="770.898438"/>
      <use xlink:href="#DejaVuSans-20" x="804.589844"/>
      <use xlink:href="#DejaVuSans-39" x="836.376953"/>
      <use xlink:href="#DejaVuSans-2c" x="900"/>
      <use xlink:href="#DejaVuSans-31" x="931.787109"/>
      <use xlink:href="#DejaVuSans-37" x="995.410156"/>
      <use xlink:href="#DejaVuSans-30" x="1059.033203"/>
      <use xlink:href="#DejaVuSans-20" x="1122.65625"/>
      <use xlink:href="#DejaVuSans-6c" x="1154.443359"/>
      <use xlink:href="#DejaVuSans-69" x="1182.226562"/>
      <use xlink:href="#DejaVuSans-6e" x="1210.009766"/>
      <use xlink:href="#DejaVuSans-65" x="1273.388672"/>
      <use xlink:href="#DejaVuSans-73" x="1334.912109"/>
      <use xlink:href="#DejaVuSans-20" x="1387.011719"/>
      <use xlink:href="#DejaVuSans-28" x="1418.798828"/>
      <use xlink:href="#DejaVuSans-31" x="1457.8125"/>
      <use xlink:href="#DejaVuSans-36" x="1521.435547"/>
      <use xlink:href="#DejaVuSans-2e" x="1585.058594"/>
      <use xlink:href="#DejaVuSans-34" x="1616.845703"/>
      <use xlink:href="#DejaVuSans-25" x="1680.46875"/>
      <use xlink:href="#DejaVuSans-29" x="1775.488281"/>
     </g>
    </g>
    <g id="patch_12">
     <path d="M 767.231 408.354156 
L 785.231 408.354156 
L 785.231 402.054156 
L 767.231 402.054156 
z
" style="fill: #ff6347"/>
    </g>
    <g id="text_18">
     <!-- Configuration: 13,629 lines (24.3%) -->
     <g transform="translate(792.431 408.354156) scale(0.09 -0.09)">
      <defs>
       <path id="DejaVuSans-66" d="M 2375 4863 
L 2375 4384 
L 1825 4384 
Q 1516 4384 1395 4259 
Q 1275 4134 1275 3809 
L 1275 3500 
L 2222 3500 
L 2222 3053 
L 1275 3053 
L 1275 0 
L 697 0 
L 697 3053 
L 147 3053 
L 147 3500 
L 697 3500 
L 697 3744 
Q 697 4328 969 4595 
Q 1241 4863 1831 4863 
L 2375 4863 
z
" transform="scale(0.015625)"/>
       <path id="DejaVuSans-67" d="M 2906 1791 
Q 2906 2416 2648 2759 
Q 2391 3103 1925 3103 
Q 1463 3103 1205 2759 
Q 947 2416 947 1791 
Q 947 1169 1205 825 
Q 1463 481 1925 481 
Q 2391 481 2648 825 
Q 2906 1169 2906 1791 
z
M 3481 434 
Q 3481 -459 3084 -895 
Q 2688 -1331 1869 -1331 
Q 1566 -1331 1297 -1286 
Q 1028 -1241 775 -1147 
L 775 -588 
Q 1028 -725 1275 -790 
Q 1522 -856 1778 -856 
Q 2344 -856 2625 -561 
Q 2906 -266 2906 331 
L 2906 616 
Q 2728 306 2450 153 
Q 2172 0 1784 0 
Q 1141 0 747 490 
Q 353 981 353 1791 
Q 353 2603 747 3093 
Q 1141 3584 1784 3584 
Q 2172 3584 2450 3431 
Q 2728 3278 2906 2969 
L 2906 3500 
L 3481 3500 
L 3481 434 
z
" transform="scale(0.015625)"/>
      </defs>
      <use xlink:href="#DejaVuSans-43"/>
      <use xlink:href="#DejaVuSans-6f" x="69.824219"/>
      <use xlink:href="#DejaVuSans-6e" x="131.005859"/>
      <use xlink:href="#DejaVuSans-66" x="194.384766"/>
      <use xlink:href="#DejaVuSans-69" x="229.589844"/>
      <use xlink:href="#DejaVuSans-67" x="257.373047"/>
      <use xlink:href="#DejaVuSans-75" x="320.849609"/>
      <use xlink:href="#DejaVuSans-72" x="384.228516"/>
      <use xlink:href="#DejaVuSans-61" x="425.341797"/>
      <use xlink:href="#DejaVuSans-74" x="486.621094"/>
      <use xlink:href="#DejaVuSans-69" x="525.830078"/>
      <use xlink:href="#DejaVuSans-6f" x="553.613281"/>
      <use xlink:href="#DejaVuSans-6e" x="614.794922"/>
      <use xlink:href="#DejaVuSans-3a" x="678.173828"/>
      <use xlink:href="#DejaVuSans-20" x="711.865234"/>
      <use xlink:href="#DejaVuSans-31" x="743.652344"/>
      <use xlink:href="#DejaVuSans-33" x="807.275391"/>
      <use xlink:href="#DejaVuSans-2c" x="870.898438"/>
      <use xlink:href="#DejaVuSans-36" x="902.685547"/>
      <use xlink:href="#DejaVuSans-32" x="966.308594"/>
      <use xlink:href="#DejaVuSans-39" x="1029.931641"/>
      <use xlink:href="#DejaVuSans-20" x="1093.554688"/>
      <use xlink:href="#DejaVuSans-6c" x="1125.341797"/>
      <use xlink:href="#DejaVuSans-69" x="1153.125"/>
      <use xlink:href="#DejaVuSans-6e" x="1180.908203"/>
      <use xlink:href="#DejaVuSans-65" x="1244.287109"/>
      <use xlink:href="#DejaVuSans-73" x="1305.810547"/>
      <use xlink:href="#DejaVuSans-20" x="1357.910156"/>
      <use xlink:href="#DejaVuSans-28" x="1389.697266"/>
      <use xlink:href="#DejaVuSans-32" x="1428.710938"/>
      <use xlink:href="#DejaVuSans-34" x="1492.333984"/>
      <use xlink:href="#DejaVuSans-2e" x="1555.957031"/>
      <use xlink:href="#DejaVuSans-33" x="1587.744141"/>
      <use xlink:href="#DejaVuSans-25" x="1651.367188"/>
      <use xlink:href="#DejaVuSans-29" x="1746.386719"/>
     </g>
    </g>
    <g id="patch_13">
     <path d="M 767.231 421.564469 
L 785.231 421.564469 
L 785.231 415.264469 
L 767.231 415.264469 
z
" style="fill: #daa520"/>
    </g>
    <g id="text_19">
     <!-- Generated Code: 1,161 lines (2.1%) -->
     <g transform="translate(792.431 421.564469) scale(0.09 -0.09)">
      <defs>
       <path id="DejaVuSans-47" d="M 3809 666 
L 3809 1919 
L 2778 1919 
L 2778 2438 
L 4434 2438 
L 4434 434 
Q 4069 175 3628 42 
Q 3188 -91 2688 -91 
Q 1594 -91 976 548 
Q 359 1188 359 2328 
Q 359 3472 976 4111 
Q 1594 4750 2688 4750 
Q 3144 4750 3555 4637 
Q 3966 4525 4313 4306 
L 4313 3634 
Q 3963 3931 3569 4081 
Q 3175 4231 2741 4231 
Q 1884 4231 1454 3753 
Q 1025 3275 1025 2328 
Q 1025 1384 1454 906 
Q 1884 428 2741 428 
Q 3075 428 3337 486 
Q 3600 544 3809 666 
z
" transform="scale(0.015625)"/>
      </defs>
      <use xlink:href="#DejaVuSans-47"/>
      <use xlink:href="#DejaVuSans-65" x="77.490234"/>
      <use xlink:href="#DejaVuSans-6e" x="139.013672"/>
      <use xlink:href="#DejaVuSans-65" x="202.392578"/>
      <use xlink:href="#DejaVuSans-72" x="263.916016"/>
      <use xlink:href="#DejaVuSans-61" x="305.029297"/>
      <use xlink:href="#DejaVuSans-74" x="366.308594"/>
      <use xlink:href="#DejaVuSans-65" x="405.517578"/>
      <use xlink:href="#DejaVuSans-64" x="467.041016"/>
      <use xlink:href="#DejaVuSans-20" x="530.517578"/>
      <use xlink:href="#DejaVuSans-43" x="562.304688"/>
      <use xlink:href="#DejaVuSans-6f" x="632.128906"/>
      <use xlink:href="#DejaVuSans-64" x="693.310547"/>
      <use xlink:href="#DejaVuSans-65" x="756.787109"/>
      <use xlink:href="#DejaVuSans-3a" x="818.310547"/>
      <use xlink:href="#DejaVuSans-20" x="852.001953"/>
      <use xlink:href="#DejaVuSans-31" x="883.789062"/>
      <use xlink:href="#DejaVuSans-2c" x="947.412109"/>
      <use xlink:href="#DejaVuSans-31" x="979.199219"/>
      <use xlink:href="#DejaVuSans-36" x="1042.822266"/>
      <use xlink:href="#DejaVuSans-31" x="1106.445312"/>
      <use xlink:href="#DejaVuSans-20" x="1170.068359"/>
      <use xlink:href="#DejaVuSans-6c" x="1201.855469"/>
      <use xlink:href="#DejaVuSans-69" x="1229.638672"/>
      <use xlink:href="#DejaVuSans-6e" x="1257.421875"/>
      <use xlink:href="#DejaVuSans-65" x="1320.800781"/>
      <use xlink:href="#DejaVuSans-73" x="1382.324219"/>
      <use xlink:href="#DejaVuSans-20" x="1434.423828"/>
      <use xlink:href="#DejaVuSans-28" x="1466.210938"/>
      <use xlink:href="#DejaVuSans-32" x="1505.224609"/>
      <use xlink:href="#DejaVuSans-2e" x="1568.847656"/>
      <use xlink:href="#DejaVuSans-31" x="1600.634766"/>
      <use xlink:href="#DejaVuSans-25" x="1664.257812"/>
      <use xlink:href="#DejaVuSans-29" x="1759.277344"/>
     </g>
    </g>
    <g id="patch_14">
     <path d="M 767.231 434.774781 
L 785.231 434.774781 
L 785.231 428.474781 
L 767.231 428.474781 
z
" style="fill: #cd853f"/>
    </g>
    <g id="text_20">
     <!-- Utility Scripts: 4,613 lines (8.2%) -->
     <g transform="translate(792.431 434.774781) scale(0.09 -0.09)">
      <defs>
       <path id="DejaVuSans-55" d="M 556 4666 
L 1191 4666 
L 1191 1831 
Q 1191 1081 1462 751 
Q 1734 422 2344 422 
Q 2950 422 3222 751 
Q 3494 1081 3494 1831 
L 3494 4666 
L 4128 4666 
L 4128 1753 
Q 4128 841 3676 375 
Q 3225 -91 2344 -91 
Q 1459 -91 1007 375 
Q 556 841 556 1753 
L 556 4666 
z
" transform="scale(0.015625)"/>
       <path id="DejaVuSans-79" d="M 2059 -325 
Q 1816 -950 1584 -1140 
Q 1353 -1331 966 -1331 
L 506 -1331 
L 506 -850 
L 844 -850 
Q 1081 -850 1212 -737 
Q 1344 -625 1503 -206 
L 1606 56 
L 191 3500 
L 800 3500 
L 1894 763 
L 2988 3500 
L 3597 3500 
L 2059 -325 
z
" transform="scale(0.015625)"/>
       <path id="DejaVuSans-53" d="M 3425 4513 
L 3425 3897 
Q 3066 4069 2747 4153 
Q 2428 4238 2131 4238 
Q 1616 4238 1336 4038 
Q 1056 3838 1056 3469 
Q 1056 3159 1242 3001 
Q 1428 2844 1947 2747 
L 2328 2669 
Q 3034 2534 3370 2195 
Q 3706 1856 3706 1288 
Q 3706 609 3251 259 
Q 2797 -91 1919 -91 
Q 1588 -91 1214 -16 
Q 841 59 441 206 
L 441 856 
Q 825 641 1194 531 
Q 1563 422 1919 422 
Q 2459 422 2753 634 
Q 3047 847 3047 1241 
Q 3047 1584 2836 1778 
Q 2625 1972 2144 2069 
L 1759 2144 
Q 1053 2284 737 2584 
Q 422 2884 422 3419 
Q 422 4038 858 4394 
Q 1294 4750 2059 4750 
Q 2388 4750 2728 4690 
Q 3069 4631 3425 4513 
z
" transform="scale(0.015625)"/>
      </defs>
      <use xlink:href="#DejaVuSans-55"/>
      <use xlink:href="#DejaVuSans-74" x="73.193359"/>
      <use xlink:href="#DejaVuSans-69" x="112.402344"/>
      <use xlink:href="#DejaVuSans-6c" x="140.185547"/>
      <use xlink:href="#DejaVuSans-69" x="167.96875"/>
      <use xlink:href="#DejaVuSans-74" x="195.751953"/>
      <use xlink:href="#DejaVuSans-79" x="234.960938"/>
      <use xlink:href="#DejaVuSans-20" x="294.140625"/>
      <use xlink:href="#DejaVuSans-53" x="325.927734"/>
      <use xlink:href="#DejaVuSans-63" x="389.404297"/>
      <use xlink:href="#DejaVuSans-72" x="444.384766"/>
      <use xlink:href="#DejaVuSans-69" x="485.498047"/>
      <use xlink:href="#DejaVuSans-70" x="513.28125"/>
      <use xlink:href="#DejaVuSans-74" x="576.757812"/>
      <use xlink:href="#DejaVuSans-73" x="615.966797"/>
      <use xlink:href="#DejaVuSans-3a" x="668.066406"/>
      <use xlink:href="#DejaVuSans-20" x="701.757812"/>
      <use xlink:href="#DejaVuSans-34" x="733.544922"/>
      <use xlink:href="#DejaVuSans-2c" x="797.167969"/>
      <use xlink:href="#DejaVuSans-36" x="828.955078"/>
      <use xlink:href="#DejaVuSans-31" x="892.578125"/>
      <use xlink:href="#DejaVuSans-33" x="956.201172"/>
      <use xlink:href="#DejaVuSans-20" x="1019.824219"/>
      <use xlink:href="#DejaVuSans-6c" x="1051.611328"/>
      <use xlink:href="#DejaVuSans-69" x="1079.394531"/>
      <use xlink:href="#DejaVuSans-6e" x="1107.177734"/>
      <use xlink:href="#DejaVuSans-65" x="1170.556641"/>
      <use xlink:href="#DejaVuSans-73" x="1232.080078"/>
      <use xlink:href="#DejaVuSans-20" x="1284.179688"/>
      <use xlink:href="#DejaVuSans-28" x="1315.966797"/>
      <use xlink:href="#DejaVuSans-38" x="1354.980469"/>
      <use xlink:href="#DejaVuSans-2e" x="1418.603516"/>
      <use xlink:href="#DejaVuSans-32" x="1450.390625"/>
      <use xlink:href="#DejaVuSans-25" x="1514.013672"/>
      <use xlink:href="#DejaVuSans-29" x="1609.033203"/>
     </g>
    </g>
   </g>
  </g>
  <g id="text_21">
   <g id="patch_15">
    <path d="M 7.2 712.392187 
L 234.075 712.392187 
Q 239.075 712.392187 239.075 707.392187 
L 239.075 641.725 
Q 239.075 636.725 234.075 636.725 
L 7.2 636.725 
Q 2.2 636.725 2.2 641.725 
L 2.2 707.392187 
Q 2.2 712.392187 7.2 712.392187 
z
" style="fill: #d3d3d3; opacity: 0.8; stroke: #000000; stroke-linejoin: miter"/>
   </g>
   <!-- Key Metrics: -->
   <g transform="translate(7.2 649.323437) scale(0.1 -0.1)">
    <defs>
     <path id="DejaVuSans-4b" d="M 628 4666 
L 1259 4666 
L 1259 2694 
L 3353 4666 
L 4166 4666 
L 1850 2491 
L 4331 0 
L 3500 0 
L 1259 2247 
L 1259 0 
L 628 0 
L 628 4666 
z
" transform="scale(0.015625)"/>
     <path id="DejaVuSans-4d" d="M 628 4666 
L 1569 4666 
L 2759 1491 
L 3956 4666 
L 4897 4666 
L 4897 0 
L 4281 0 
L 4281 4097 
L 3078 897 
L 2444 897 
L 1241 4097 
L 1241 0 
L 628 0 
L 628 4666 
z
" transform="scale(0.015625)"/>
    </defs>
    <use xlink:href="#DejaVuSans-4b"/>
    <use xlink:href="#DejaVuSans-65" x="60.576172"/>
    <use xlink:href="#DejaVuSans-79" x="122.099609"/>
    <use xlink:href="#DejaVuSans-20" x="181.279297"/>
    <use xlink:href="#DejaVuSans-4d" x="213.066406"/>
    <use xlink:href="#DejaVuSans-65" x="299.345703"/>
    <use xlink:href="#DejaVuSans-74" x="360.869141"/>
    <use xlink:href="#DejaVuSans-72" x="400.078125"/>
    <use xlink:href="#DejaVuSans-69" x="441.191406"/>
    <use xlink:href="#DejaVuSans-63" x="468.974609"/>
    <use xlink:href="#DejaVuSans-73" x="523.955078"/>
    <use xlink:href="#DejaVuSans-3a" x="576.054688"/>
   </g>
   <!--  Total Lines: 56,054 lines -->
   <g transform="translate(7.2 660.52125) scale(0.1 -0.1)">
    <defs>
     <path id="DejaVuSans-2022" d="M 959 2381 
Q 959 2769 1229 3036 
Q 1500 3303 1894 3303 
Q 2281 3303 2548 3036 
Q 2816 2769 2816 2381 
Q 2816 1991 2547 1722 
Q 2278 1453 1888 1453 
Q 1497 1453 1228 1722 
Q 959 1991 959 2381 
z
" transform="scale(0.015625)"/>
     <path id="DejaVuSans-4c" d="M 628 4666 
L 1259 4666 
L 1259 531 
L 3531 531 
L 3531 0 
L 628 0 
L 628 4666 
z
" transform="scale(0.015625)"/>
    </defs>
    <use xlink:href="#DejaVuSans-2022"/>
    <use xlink:href="#DejaVuSans-20" x="58.984375"/>
    <use xlink:href="#DejaVuSans-54" x="90.771484"/>
    <use xlink:href="#DejaVuSans-6f" x="134.855469"/>
    <use xlink:href="#DejaVuSans-74" x="196.037109"/>
    <use xlink:href="#DejaVuSans-61" x="235.246094"/>
    <use xlink:href="#DejaVuSans-6c" x="296.525391"/>
    <use xlink:href="#DejaVuSans-20" x="324.308594"/>
    <use xlink:href="#DejaVuSans-4c" x="356.095703"/>
    <use xlink:href="#DejaVuSans-69" x="411.808594"/>
    <use xlink:href="#DejaVuSans-6e" x="439.591797"/>
    <use xlink:href="#DejaVuSans-65" x="502.970703"/>
    <use xlink:href="#DejaVuSans-73" x="564.494141"/>
    <use xlink:href="#DejaVuSans-3a" x="616.59375"/>
    <use xlink:href="#DejaVuSans-20" x="650.285156"/>
    <use xlink:href="#DejaVuSans-35" x="682.072266"/>
    <use xlink:href="#DejaVuSans-36" x="745.695312"/>
    <use xlink:href="#DejaVuSans-2c" x="809.318359"/>
    <use xlink:href="#DejaVuSans-30" x="841.105469"/>
    <use xlink:href="#DejaVuSans-35" x="904.728516"/>
    <use xlink:href="#DejaVuSans-34" x="968.351562"/>
    <use xlink:href="#DejaVuSans-20" x="1031.974609"/>
    <use xlink:href="#DejaVuSans-6c" x="1063.761719"/>
    <use xlink:href="#DejaVuSans-69" x="1091.544922"/>
    <use xlink:href="#DejaVuSans-6e" x="1119.328125"/>
    <use xlink:href="#DejaVuSans-65" x="1182.707031"/>
    <use xlink:href="#DejaVuSans-73" x="1244.230469"/>
   </g>
   <!--  Test-to-Application Ratio: 1.5:1 -->
   <g transform="translate(7.2 671.719062) scale(0.1 -0.1)">
    <defs>
     <path id="DejaVuSans-2d" d="M 313 2009 
L 1997 2009 
L 1997 1497 
L 313 1497 
L 313 2009 
z
" transform="scale(0.015625)"/>
     <path id="DejaVuSans-52" d="M 2841 2188 
Q 3044 2119 3236 1894 
Q 3428 1669 3622 1275 
L 4263 0 
L 3584 0 
L 2988 1197 
Q 2756 1666 2539 1819 
Q 2322 1972 1947 1972 
L 1259 1972 
L 1259 0 
L 628 0 
L 628 4666 
L 2053 4666 
Q 2853 4666 3247 4331 
Q 3641 3997 3641 3322 
Q 3641 2881 3436 2590 
Q 3231 2300 2841 2188 
z
M 1259 4147 
L 1259 2491 
L 2053 2491 
Q 2509 2491 2742 2702 
Q 2975 2913 2975 3322 
Q 2975 3731 2742 3939 
Q 2509 4147 2053 4147 
L 1259 4147 
z
" transform="scale(0.015625)"/>
    </defs>
    <use xlink:href="#DejaVuSans-2022"/>
    <use xlink:href="#DejaVuSans-20" x="58.984375"/>
    <use xlink:href="#DejaVuSans-54" x="90.771484"/>
    <use xlink:href="#DejaVuSans-65" x="134.855469"/>
    <use xlink:href="#DejaVuSans-73" x="196.378906"/>
    <use xlink:href="#DejaVuSans-74" x="248.478516"/>
    <use xlink:href="#DejaVuSans-2d" x="287.6875"/>
    <use xlink:href="#DejaVuSans-74" x="323.771484"/>
    <use xlink:href="#DejaVuSans-6f" x="362.980469"/>
    <use xlink:href="#DejaVuSans-2d" x="426.037109"/>
    <use xlink:href="#DejaVuSans-41" x="459.871094"/>
    <use xlink:href="#DejaVuSans-70" x="528.279297"/>
    <use xlink:href="#DejaVuSans-70" x="591.755859"/>
    <use xlink:href="#DejaVuSans-6c" x="655.232422"/>
    <use xlink:href="#DejaVuSans-69" x="683.015625"/>
    <use xlink:href="#DejaVuSans-63" x="710.798828"/>
    <use xlink:href="#DejaVuSans-61" x="765.779297"/>
    <use xlink:href="#DejaVuSans-74" x="827.058594"/>
    <use xlink:href="#DejaVuSans-69" x="866.267578"/>
    <use xlink:href="#DejaVuSans-6f" x="894.050781"/>
    <use xlink:href="#DejaVuSans-6e" x="955.232422"/>
    <use xlink:href="#DejaVuSans-20" x="1018.611328"/>
    <use xlink:href="#DejaVuSans-52" x="1050.398438"/>
    <use xlink:href="#DejaVuSans-61" x="1117.630859"/>
    <use xlink:href="#DejaVuSans-74" x="1178.910156"/>
    <use xlink:href="#DejaVuSans-69" x="1218.119141"/>
    <use xlink:href="#DejaVuSans-6f" x="1245.902344"/>
    <use xlink:href="#DejaVuSans-3a" x="1307.083984"/>
    <use xlink:href="#DejaVuSans-20" x="1340.775391"/>
    <use xlink:href="#DejaVuSans-31" x="1372.5625"/>
    <use xlink:href="#DejaVuSans-2e" x="1436.185547"/>
    <use xlink:href="#DejaVuSans-35" x="1467.972656"/>
    <use xlink:href="#DejaVuSans-3a" x="1531.595703"/>
    <use xlink:href="#DejaVuSans-31" x="1565.287109"/>
   </g>
   <!--  Generated Code: 9.7% of application -->
   <g transform="translate(7.2 682.916875) scale(0.1 -0.1)">
    <use xlink:href="#DejaVuSans-2022"/>
    <use xlink:href="#DejaVuSans-20" x="58.984375"/>
    <use xlink:href="#DejaVuSans-47" x="90.771484"/>
    <use xlink:href="#DejaVuSans-65" x="168.261719"/>
    <use xlink:href="#DejaVuSans-6e" x="229.785156"/>
    <use xlink:href="#DejaVuSans-65" x="293.164062"/>
    <use xlink:href="#DejaVuSans-72" x="354.6875"/>
    <use xlink:href="#DejaVuSans-61" x="395.800781"/>
    <use xlink:href="#DejaVuSans-74" x="457.080078"/>
    <use xlink:href="#DejaVuSans-65" x="496.289062"/>
    <use xlink:href="#DejaVuSans-64" x="557.8125"/>
    <use xlink:href="#DejaVuSans-20" x="621.289062"/>
    <use xlink:href="#DejaVuSans-43" x="653.076172"/>
    <use xlink:href="#DejaVuSans-6f" x="722.900391"/>
    <use xlink:href="#DejaVuSans-64" x="784.082031"/>
    <use xlink:href="#DejaVuSans-65" x="847.558594"/>
    <use xlink:href="#DejaVuSans-3a" x="909.082031"/>
    <use xlink:href="#DejaVuSans-20" x="942.773438"/>
    <use xlink:href="#DejaVuSans-39" x="974.560547"/>
    <use xlink:href="#DejaVuSans-2e" x="1038.183594"/>
    <use xlink:href="#DejaVuSans-37" x="1069.970703"/>
    <use xlink:href="#DejaVuSans-25" x="1133.59375"/>
    <use xlink:href="#DejaVuSans-20" x="1228.613281"/>
    <use xlink:href="#DejaVuSans-6f" x="1260.400391"/>
    <use xlink:href="#DejaVuSans-66" x="1321.582031"/>
    <use xlink:href="#DejaVuSans-20" x="1356.787109"/>
    <use xlink:href="#DejaVuSans-61" x="1388.574219"/>
    <use xlink:href="#DejaVuSans-70" x="1449.853516"/>
    <use xlink:href="#DejaVuSans-70" x="1513.330078"/>
    <use xlink:href="#DejaVuSans-6c" x="1576.806641"/>
    <use xlink:href="#DejaVuSans-69" x="1604.589844"/>
    <use xlink:href="#DejaVuSans-63" x="1632.373047"/>
    <use xlink:href="#DejaVuSans-61" x="1687.353516"/>
    <use xlink:href="#DejaVuSans-74" x="1748.632812"/>
    <use xlink:href="#DejaVuSans-69" x="1787.841797"/>
    <use xlink:href="#DejaVuSans-6f" x="1815.625"/>
    <use xlink:href="#DejaVuSans-6e" x="1876.806641"/>
   </g>
   <!--  Documentation-to-Code Ratio: 0.55:1 -->
   <g transform="translate(7.2 694.114687) scale(0.1 -0.1)">
    <use xlink:href="#DejaVuSans-2022"/>
    <use xlink:href="#DejaVuSans-20" x="58.984375"/>
    <use xlink:href="#DejaVuSans-44" x="90.771484"/>
    <use xlink:href="#DejaVuSans-6f" x="167.773438"/>
    <use xlink:href="#DejaVuSans-63" x="228.955078"/>
    <use xlink:href="#DejaVuSans-75" x="283.935547"/>
    <use xlink:href="#DejaVuSans-6d" x="347.314453"/>
    <use xlink:href="#DejaVuSans-65" x="444.726562"/>
    <use xlink:href="#DejaVuSans-6e" x="506.25"/>
    <use xlink:href="#DejaVuSans-74" x="569.628906"/>
    <use xlink:href="#DejaVuSans-61" x="608.837891"/>
    <use xlink:href="#DejaVuSans-74" x="670.117188"/>
    <use xlink:href="#DejaVuSans-69" x="709.326172"/>
    <use xlink:href="#DejaVuSans-6f" x="737.109375"/>
    <use xlink:href="#DejaVuSans-6e" x="798.291016"/>
    <use xlink:href="#DejaVuSans-2d" x="861.669922"/>
    <use xlink:href="#DejaVuSans-74" x="897.753906"/>
    <use xlink:href="#DejaVuSans-6f" x="936.962891"/>
    <use xlink:href="#DejaVuSans-2d" x="1000.019531"/>
    <use xlink:href="#DejaVuSans-43" x="1036.103516"/>
    <use xlink:href="#DejaVuSans-6f" x="1105.927734"/>
    <use xlink:href="#DejaVuSans-64" x="1167.109375"/>
    <use xlink:href="#DejaVuSans-65" x="1230.585938"/>
    <use xlink:href="#DejaVuSans-20" x="1292.109375"/>
    <use xlink:href="#DejaVuSans-52" x="1323.896484"/>
    <use xlink:href="#DejaVuSans-61" x="1391.128906"/>
    <use xlink:href="#DejaVuSans-74" x="1452.408203"/>
    <use xlink:href="#DejaVuSans-69" x="1491.617188"/>
    <use xlink:href="#DejaVuSans-6f" x="1519.400391"/>
    <use xlink:href="#DejaVuSans-3a" x="1580.582031"/>
    <use xlink:href="#DejaVuSans-20" x="1614.273438"/>
    <use xlink:href="#DejaVuSans-30" x="1646.060547"/>
    <use xlink:href="#DejaVuSans-2e" x="1709.683594"/>
    <use xlink:href="#DejaVuSans-35" x="1741.470703"/>
    <use xlink:href="#DejaVuSans-35" x="1805.09375"/>
    <use xlink:href="#DejaVuSans-3a" x="1868.716797"/>
    <use xlink:href="#DejaVuSans-31" x="1902.408203"/>
   </g>
   <!--  Test Coverage: Excellent (16,675 test lines) -->
   <g transform="translate(7.2 705.3125) scale(0.1 -0.1)">
    <defs>
     <path id="DejaVuSans-76" d="M 191 3500 
L 800 3500 
L 1894 563 
L 2988 3500 
L 3597 3500 
L 2284 0 
L 1503 0 
L 191 3500 
z
" transform="scale(0.015625)"/>
     <path id="DejaVuSans-45" d="M 628 4666 
L 3578 4666 
L 3578 4134 
L 1259 4134 
L 1259 2753 
L 3481 2753 
L 3481 2222 
L 1259 2222 
L 1259 531 
L 3634 531 
L 3634 0 
L 628 0 
L 628 4666 
z
" transform="scale(0.015625)"/>
     <path id="DejaVuSans-78" d="M 3513 3500 
L 2247 1797 
L 3578 0 
L 2900 0 
L 1881 1375 
L 863 0 
L 184 0 
L 1544 1831 
L 300 3500 
L 978 3500 
L 1906 2253 
L 2834 3500 
L 3513 3500 
z
" transform="scale(0.015625)"/>
    </defs>
    <use xlink:href="#DejaVuSans-2022"/>
    <use xlink:href="#DejaVuSans-20" x="58.984375"/>
    <use xlink:href="#DejaVuSans-54" x="90.771484"/>
    <use xlink:href="#DejaVuSans-65" x="134.855469"/>
    <use xlink:href="#DejaVuSans-73" x="196.378906"/>
    <use xlink:href="#DejaVuSans-74" x="248.478516"/>
    <use xlink:href="#DejaVuSans-20" x="287.6875"/>
    <use xlink:href="#DejaVuSans-43" x="319.474609"/>
    <use xlink:href="#DejaVuSans-6f" x="389.298828"/>
    <use xlink:href="#DejaVuSans-76" x="450.480469"/>
    <use xlink:href="#DejaVuSans-65" x="509.660156"/>
    <use xlink:href="#DejaVuSans-72" x="571.183594"/>
    <use xlink:href="#DejaVuSans-61" x="612.296875"/>
    <use xlink:href="#DejaVuSans-67" x="673.576172"/>
    <use xlink:href="#DejaVuSans-65" x="737.052734"/>
    <use xlink:href="#DejaVuSans-3a" x="798.576172"/>
    <use xlink:href="#DejaVuSans-20" x="832.267578"/>
    <use xlink:href="#DejaVuSans-45" x="864.054688"/>
    <use xlink:href="#DejaVuSans-78" x="927.238281"/>
    <use xlink:href="#DejaVuSans-63" x="984.667969"/>
    <use xlink:href="#DejaVuSans-65" x="1039.648438"/>
    <use xlink:href="#DejaVuSans-6c" x="1101.171875"/>
    <use xlink:href="#DejaVuSans-6c" x="1128.955078"/>
    <use xlink:href="#DejaVuSans-65" x="1156.738281"/>
    <use xlink:href="#DejaVuSans-6e" x="1218.261719"/>
    <use xlink:href="#DejaVuSans-74" x="1281.640625"/>
    <use xlink:href="#DejaVuSans-20" x="1320.849609"/>
    <use xlink:href="#DejaVuSans-28" x="1352.636719"/>
    <use xlink:href="#DejaVuSans-31" x="1391.650391"/>
    <use xlink:href="#DejaVuSans-36" x="1455.273438"/>
    <use xlink:href="#DejaVuSans-2c" x="1518.896484"/>
    <use xlink:href="#DejaVuSans-36" x="1550.683594"/>
    <use xlink:href="#DejaVuSans-37" x="1614.306641"/>
    <use xlink:href="#DejaVuSans-35" x="1677.929688"/>
    <use xlink:href="#DejaVuSans-20" x="1741.552734"/>
    <use xlink:href="#DejaVuSans-74" x="1773.339844"/>
    <use xlink:href="#DejaVuSans-65" x="1812.548828"/>
    <use xlink:href="#DejaVuSans-73" x="1874.072266"/>
    <use xlink:href="#DejaVuSans-74" x="1926.171875"/>
    <use xlink:href="#DejaVuSans-20" x="1965.380859"/>
    <use xlink:href="#DejaVuSans-6c" x="1997.167969"/>
    <use xlink:href="#DejaVuSans-69" x="2024.951172"/>
    <use xlink:href="#DejaVuSans-6e" x="2052.734375"/>
    <use xlink:href="#DejaVuSans-65" x="2116.113281"/>
    <use xlink:href="#DejaVuSans-73" x="2177.636719"/>
    <use xlink:href="#DejaVuSans-29" x="2229.736328"/>
   </g>
  </g>
 </g>
</svg>
